<?xml version="1.0" encoding="utf-8"?>
<!-- Generator: Adobe Illustrator 23.0.0, SVG Export Plug-In . SVG Version: 6.00 Build 0)  -->
<svg version="1.1" id="隔离模式" xmlns="http://www.w3.org/2000/svg" xmlns:xlink="http://www.w3.org/1999/xlink" x="0px"
	 y="0px" viewBox="0 0 34 120" style="enable-background:new 0 0 34 120;" xml:space="preserve">
<style type="text/css">
	.st0{fill:#202020;}
</style>
<g>
	<g>
		<path class="st0" d="M3.6,1C3.8,1,3.9,1,4,1.2c0,0,0,0,0.1,0.1l25.4,26.3c0,0.1,0.1,0.1,0.2,0.1c1,0.6,3.4,2.8,3.4,5.1v54.5
			c0,1.9-2.5,4.3-3.5,5.1c0,0-0.1,0.1-0.1,0.1L4,118.8c-0.3,0.2-0.5,0.2-0.8,0.2c-1.1,0-2.2-1.5-2.2-2.7V3.6C1,2.5,2.6,1,3.6,1
			 M3.6,0C2,0,0,2,0,3.6v112.7c0,1.7,1.5,3.7,3.2,3.7c0.5,0,0.9-0.1,1.4-0.5l25.5-26.4c0,0,3.9-3,3.9-5.9c0-3.4,0-54.5,0-54.5
			c0-3.3-3.9-5.9-3.9-5.9L4.7,0.5C4.4,0.2,4,0,3.6,0L3.6,0z"/>
	</g>
	<path class="st0" d="M20.3,68.8l-7.6-8.2c-0.3-0.3-0.3-0.8,0-1.1l0,0c0,0,0,0,0,0c0,0,0,0,0,0l7.5-8.3c0.3-0.3,0.7-0.3,1,0
		c0.3,0.3,0.3,0.8,0,1.1L14.2,60l7.1,7.7c0.3,0.3,0.3,0.8,0,1.1C21,69.1,20.6,69.1,20.3,68.8C20.3,68.8,20.3,68.8,20.3,68.8
		L20.3,68.8z"/>
</g>
</svg>
