<?xml version="1.0" encoding="utf-8"?>
<!-- Generator: Adobe Illustrator 23.0.0, SVG Export Plug-In . SVG Version: 6.00 Build 0)  -->
<svg version="1.1" id="隔离模式" xmlns="http://www.w3.org/2000/svg" xmlns:xlink="http://www.w3.org/1999/xlink" x="0px"
	 y="0px" viewBox="0 0 120 34" style="enable-background:new 0 0 120 34;" xml:space="preserve">
<style type="text/css">
	.st0{fill:#202020;}
</style>
<g>
	<g>
		<path class="st0" d="M87.2,1c1.9,0,4.3,2.5,5.1,3.5c0,0,0.1,0.1,0.1,0.1L118.8,30c0.3,0.5,0.3,1,0.1,1.5c-0.4,0.8-1.6,1.5-2.5,1.5
			H3.6c-0.9,0-2.2-1.1-2.6-2.1c-0.2-0.6,0-0.8,0.1-0.9c0,0,0,0,0.1-0.1L27.5,4.6c0.1,0,0.1-0.1,0.1-0.2c0.6-1,2.8-3.4,5.1-3.4H87.2
			 M87.2,0c-3.4,0-54.5,0-54.5,0c-3.3,0-5.9,3.9-5.9,3.9L0.5,29.3c-1.7,1.4,1,4.7,3.1,4.7h112.7c2.1,0,4.8-2.4,3.2-4.6L93.1,3.9
			C93.1,3.9,90.1,0,87.2,0L87.2,0z"/>
	</g>
	<path class="st0" d="M68.8,13.7l-8.2,7.6c-0.3,0.3-0.8,0.3-1.1,0l0,0c0,0,0,0,0,0c0,0,0,0,0,0l-8.3-7.5c-0.3-0.3-0.3-0.7,0-1
		c0.3-0.3,0.8-0.3,1.1,0l7.8,7.1l7.7-7.1c0.3-0.3,0.8-0.3,1.1,0C69.1,13,69.1,13.4,68.8,13.7C68.8,13.7,68.8,13.7,68.8,13.7
		L68.8,13.7z"/>
</g>
</svg>
