<?xml version="1.0" encoding="utf-8"?>
<!-- Generator: Adobe Illustrator 23.0.0, SVG Export Plug-In . SVG Version: 6.00 Build 0)  -->
<svg version="1.1" id="隔离模式" xmlns="http://www.w3.org/2000/svg" xmlns:xlink="http://www.w3.org/1999/xlink" x="0px"
	 y="0px" viewBox="0 0 120 34" style="enable-background:new 0 0 120 34;" xml:space="preserve">
<style type="text/css">
	.st0{fill:#202020;}
</style>
<g>
	<g>
		<path class="st0" d="M116.3,1c1,0,2.1,0.7,2.5,1.5c0.3,0.5,0.2,1-0.1,1.5L92.4,29.4c0,0-0.1,0.1-0.1,0.1c-0.8,1-3.2,3.5-5.1,3.5
			H32.7c-2.7,0-5-3.4-5.1-3.4c0-0.1-0.1-0.1-0.1-0.2L1.2,4c0,0,0,0-0.1-0.1C1.1,3.9,0.9,3.7,1.1,3.1C1.5,2.1,2.8,1,3.6,1H116.3
			 M116.3,0H3.6C1.5,0-1.2,3.3,0.5,4.7l26.3,25.4c0,0,2.6,3.9,5.9,3.9c0,0,51,0,54.5,0c2.9,0,5.9-3.9,5.9-3.9l26.4-25.5
			C121.1,2.4,118.4,0,116.3,0L116.3,0z"/>
	</g>
	<path class="st0" d="M68.8,20.3l-8.2-7.6c-0.3-0.3-0.8-0.3-1.1,0l0,0c0,0,0,0,0,0c0,0,0,0,0,0l-8.3,7.5c-0.3,0.3-0.3,0.7,0,1
		c0.3,0.3,0.8,0.3,1.1,0l7.8-7.1l7.7,7.1c0.3,0.3,0.8,0.3,1.1,0C69.1,21,69.1,20.6,68.8,20.3C68.8,20.3,68.8,20.3,68.8,20.3
		L68.8,20.3z"/>
</g>
</svg>
