<?xml version="1.0" encoding="utf-8"?>
<!-- Generator: Adobe Illustrator 23.0.0, SVG Export Plug-In . SVG Version: 6.00 Build 0)  -->
<svg version="1.1" id="隔离模式" xmlns="http://www.w3.org/2000/svg" xmlns:xlink="http://www.w3.org/1999/xlink" x="0px"
	 y="0px" viewBox="0 0 34 120" style="enable-background:new 0 0 34 120;" xml:space="preserve">
<style type="text/css">
	.st0{fill:#202020;}
</style>
<g>
	<g>
		<path class="st0" d="M30.4,1L30.4,1c1,0,2.6,1.5,2.6,2.6v112.7c0,1.2-1.1,2.7-2.2,2.7c-0.3,0-0.5-0.1-0.8-0.2L4.6,92.4
			c0,0-0.1-0.1-0.1-0.1c-1-0.8-3.5-3.2-3.5-5.1V32.7c0-2.7,3.4-5,3.4-5.1c0.1,0,0.1-0.1,0.2-0.1L30,1.2c0,0,0,0,0.1-0.1
			C30.1,1,30.2,1,30.4,1 M30.4,0c-0.4,0-0.9,0.2-1.2,0.5L3.9,26.8c0,0-3.9,2.6-3.9,5.9c0,0,0,51,0,54.5c0,2.9,3.9,5.9,3.9,5.9
			l25.5,26.4c0.5,0.3,0.9,0.5,1.4,0.5c1.7,0,3.2-2,3.2-3.7V3.6C34,2,32,0,30.4,0L30.4,0z"/>
	</g>
	<path class="st0" d="M13.7,68.8l7.6-8.2c0.3-0.3,0.3-0.8,0-1.1l0,0c0,0,0,0,0,0c0,0,0,0,0,0l-7.5-8.3c-0.3-0.3-0.7-0.3-1,0
		c-0.3,0.3-0.3,0.8,0,1.1l7.1,7.8l-7.1,7.7c-0.3,0.3-0.3,0.8,0,1.1C13,69.1,13.4,69.1,13.7,68.8C13.7,68.8,13.7,68.8,13.7,68.8
		L13.7,68.8z"/>
</g>
</svg>
