<?xml version="1.0" encoding="utf-8"?>
<!-- Generator: Adobe Illustrator 23.0.0, SVG Export Plug-In . SVG Version: 6.00 Build 0)  -->
<svg version="1.1" id="brightness" xmlns="http://www.w3.org/2000/svg" xmlns:xlink="http://www.w3.org/1999/xlink" x="0px" y="0px"
	 viewBox="0 0 32 32" style="enable-background:new 0 0 32 32;" xml:space="preserve">
<style type="text/css">
	.st0{fill:#FAFAFA;}
</style>
<g>
	<path class="st0" d="M0,15.9c0-3.3,0-6.6,0-9.8c0-3.5,2.6-6,6.1-6c6.5,0,13,0,19.5,0C29.1,0,32,2.8,32,6.4c0,6.3,0,12.5,0,18.8
		c0,4-2.9,6.9-6.9,6.9c-6.2,0-12.4,0-18.6,0C2.4,32,0,29.6,0,25.4C0,22.2,0,19.1,0,15.9z M4.9,1.9C2.2,3.2,1.4,5.3,1.4,8.2
		c0.2,5.6,0,11.1,0,16.7c0,3.4,2.2,5.6,5.7,5.6c5.8,0,11.6,0,17.4,0c3.7,0,5.5-1.8,5.5-5.6c0-5.5-0.2-11,0.1-16.5
		c0.1-3-0.7-5.1-3.4-6.5c-0.5-0.1-1-0.4-1.5-0.4c-6.3,0-12.6,0-18.8,0C5.9,1.5,5.4,1.7,4.9,1.9z"/>
	<path class="st0" d="M19.3,20.8c-1.1,0.8-2.5,1.2-3.8,1c-0.1,0-0.1,0-0.2,0c-0.1,0-0.2,0-0.4-0.1c-0.1,0-0.1,0-0.2-0.1
		c-0.1,0-0.2-0.1-0.3-0.1c-0.1,0-0.1,0-0.2-0.1c-0.3-0.1-0.6-0.2-0.9-0.4l0,0c-0.6-0.4-1.2-0.8-1.7-1.4c0,0,0-0.1-0.1-0.1
		c-0.8-1.1-1.3-2.3-1.3-3.7h1.3c0,0,0.1,0,0.1-0.1c0,0,0-0.1,0-0.1l-2.2-3.4c0,0,0,0-0.1,0c0,0-0.1,0-0.1,0L7,15.8c0,0,0,0.1,0,0.1
		c0,0,0,0.1,0.1,0.1h1.3c0,1.6,0.5,3.1,1.3,4.4c0,0,0,0,0,0.1c0.1,0.1,0.2,0.2,0.3,0.4c0,0,0.1,0.1,0.1,0.1c0.1,0.2,0.3,0.3,0.4,0.5
		l0,0c0.7,0.7,1.4,1.2,2.3,1.6l0.1,0.1c0.2,0.1,0.3,0.1,0.5,0.2c0.1,0,0.2,0.1,0.2,0.1c0.1,0,0.3,0.1,0.4,0.1c0.1,0,0.2,0,0.3,0.1
		c0,0,0.1,0,0.1,0c0.1,0,0.3,0,0.4,0.1l0.2,0c1.8,0.2,3.6-0.3,5.1-1.4c0.4-0.3,0.5-0.9,0.2-1.3c-0.1-0.2-0.3-0.3-0.6-0.4
		C19.7,20.6,19.5,20.7,19.3,20.8L19.3,20.8z M23.6,16c0-1.6-0.5-3.1-1.3-4.4c0,0,0,0,0-0.1c-0.1-0.1-0.2-0.3-0.3-0.4l0-0.1
		c-0.7-0.9-1.7-1.7-2.8-2.2c0,0-0.1,0-0.1,0c-0.2-0.1-0.4-0.1-0.5-0.2c-0.1,0-0.1,0-0.2-0.1c-0.2,0-0.3-0.1-0.5-0.1
		c-0.1,0-0.2,0-0.3-0.1c0,0-0.1,0-0.1,0c-0.1,0-0.2,0-0.4,0c-0.1,0-0.2,0-0.2,0c-0.2,0-0.4,0-0.6,0c0,0-0.1,0-0.1,0
		c-1.6,0-3.1,0.5-4.3,1.4c-0.4,0.3-0.5,0.9-0.2,1.3c0.1,0.2,0.3,0.3,0.6,0.4c0.2,0,0.5,0,0.7-0.2c1.1-0.8,2.5-1.2,3.8-1l0.2,0
		c0.1,0,0.3,0,0.4,0.1c0.1,0,0.1,0,0.2,0c0.1,0,0.3,0.1,0.4,0.1l0.1,0c0.1,0,0.3,0.1,0.4,0.2l0,0c0.8,0.4,1.6,0.9,2.2,1.7l0,0
		c0.9,1.1,1.3,2.4,1.3,3.7h-1.3c0,0-0.1,0-0.1,0.1c0,0,0,0.1,0,0.1l2.2,3.4c0,0,0,0,0.1,0s0.1,0,0.1,0l2.2-3.4c0,0,0,0,0,0
		c0-0.1,0-0.1-0.1-0.1L23.6,16z"/>
</g>
</svg>
