<?xml version="1.0" encoding="utf-8"?>
<!-- Generator: Adobe Illustrator 23.0.0, SVG Export Plug-In . SVG Version: 6.00 Build 0)  -->
<svg version="1.1" id="图层_1" xmlns="http://www.w3.org/2000/svg" xmlns:xlink="http://www.w3.org/1999/xlink" x="0px" y="0px"
	 viewBox="0 0 32 32" style="enable-background:new 0 0 32 32;" xml:space="preserve">
<style type="text/css">
	.st0{fill:#202020;}
</style>
<g>
	<path class="st0" d="M16,6.9c6.4,0,11.7,5.1,11.7,11.4v8.3c0,0.5-0.4,0.9-0.9,0.9H5.2c-0.5,0-0.9-0.4-0.9-0.9v-8.3
		C4.3,12,9.6,6.9,16,6.9z M16,9.1c-5.1,0-9.2,4-9.3,9l0,0.2v6.9h18.7v-6.9c0-5-4.1-9.1-9.2-9.1L16,9.1z"/>
	<path class="st0" d="M28.7,5.3L28.7,5.3c0.5,0.5,0.5,1.1,0,1.6L27.6,8c-0.5,0.5-1.1,0.5-1.6,0l0,0c-0.5-0.5-0.5-1.1,0-1.6l1.1-1.1
		C27.6,4.8,28.2,4.8,28.7,5.3z"/>
	<path class="st0" d="M16,0L16,0c0.8,0,1.2,0.4,1.2,1.1v1.6c0,0.8-0.4,1.1-1.2,1.1l0,0c-0.8,0-1.2-0.4-1.2-1.1V1.1
		C14.8,0.4,15.2,0,16,0z"/>
	<path class="st0" d="M3.3,5.3L3.3,5.3c0.5-0.5,1.1-0.5,1.6,0l1.1,1.1C6.6,7,6.6,7.5,6.1,8l0,0C5.5,8.6,5,8.6,4.4,8L3.3,6.9
		C2.7,6.4,2.7,5.9,3.3,5.3z"/>
	<path class="st0" d="M10.2,20.6L10.2,20.6c0.8,0,1.2,0.4,1.2,1.1v3.6c0,0.8-0.4,1.1-1.2,1.1l0,0C9.4,26.4,9,26,9,25.3v-3.6
		C9,21,9.4,20.6,10.2,20.6z"/>
	<path class="st0" d="M3.2,29.7h25.7c0.8,0,1.2,0.4,1.2,1.1l0,0c0,0.8-0.4,1.1-1.2,1.1H3.2C2.4,32,2,31.6,2,30.9l0,0
		C2,30.1,2.4,29.7,3.2,29.7z"/>
</g>
</svg>
