<?xml version="1.0" encoding="utf-8"?>
<!-- Generator: Adobe Illustrator 23.0.0, SVG Export Plug-In . SVG Version: 6.00 Build 0)  -->
<svg version="1.1" id="图层_1" xmlns="http://www.w3.org/2000/svg" xmlns:xlink="http://www.w3.org/1999/xlink" x="0px" y="0px"
	 viewBox="0 0 32 32" style="enable-background:new 0 0 32 32;" xml:space="preserve">
<style type="text/css">
	.st0{fill:#202020;}
</style>
<path class="st0" d="M1,27.6V4.4C1,2.5,2.5,1,4.4,1h23.1C29.5,1,31,2.5,31,4.4v23.1c0,1.9-1.5,3.4-3.4,3.4H4.4C2.5,31,1,29.5,1,27.6
	z M26.7,28.4c0.9,0,1.7-0.8,1.7-1.7V5.3c0-0.9-0.8-1.7-1.7-1.7H5.3c-0.9,0-1.7,0.8-1.7,1.7v21.4c0,0.9,0.8,1.7,1.7,1.7H26.7z
	 M13.2,15.2L8.3,9.9l-0.1,2.6c0,0.6-0.5,1.1-1.2,1.1c-0.6,0-1.1-0.5-1.1-1.2l0.2-5C6,7.4,6,7.2,6,7.1c0-0.3,0.2-0.6,0.4-0.8
	c0.2-0.2,0.5-0.4,0.8-0.4c0.1,0,0.3,0,0.4,0.1l5,0.2c0.6,0,1.1,0.5,1.1,1.2c0,0.6-0.5,1.1-1.2,1.1L9.9,8.4l4.9,5.3
	C15.7,14.5,14.1,16.1,13.2,15.2z M17.1,13.7l4.9-5.3l-2.6,0.1c-0.6,0-1.1-0.5-1.2-1.1c0-0.6,0.5-1.2,1.1-1.2l5-0.2
	c0.1,0,0.2-0.1,0.4-0.1c0.3,0,0.6,0.1,0.8,0.4C25.8,6.5,26,6.8,26,7.1c0,0.1,0,0.3-0.1,0.4l0.2,5c0,0.6-0.5,1.2-1.1,1.2
	c-0.6,0-1.1-0.5-1.2-1.1l-0.1-2.6l-4.9,5.3C17.9,16.1,16.3,14.5,17.1,13.7z M14.9,18.3l-4.9,5.3l2.6-0.1c0.6,0,1.1,0.5,1.2,1.1
	c0,0.6-0.5,1.2-1.1,1.2l-5,0.2c-0.1,0-0.2,0.1-0.4,0.1c-0.3,0-0.6-0.1-0.8-0.4C6.2,25.5,6,25.2,6,24.9c0-0.1,0-0.3,0.1-0.4l-0.2-5
	c0-0.6,0.5-1.2,1.1-1.2c0.6,0,1.1,0.5,1.2,1.1l0.1,2.6l4.9-5.3C14.1,15.9,15.7,17.5,14.9,18.3z M18.8,16.8l4.9,5.3l0.1-2.6
	c0-0.6,0.5-1.1,1.2-1.1c0.6,0,1.1,0.5,1.1,1.2l-0.2,5c0,0.1,0.1,0.2,0.1,0.4c0,0.3-0.2,0.6-0.4,0.8c-0.2,0.2-0.5,0.4-0.8,0.4
	c-0.1,0-0.3,0-0.4-0.1l-5-0.2c-0.6,0-1.1-0.5-1.1-1.2c0-0.6,0.5-1.1,1.2-1.1l2.6,0.1l-4.9-5.3C16.3,17.5,17.9,15.9,18.8,16.8z"/>
</svg>
