<?xml version="1.0" encoding="utf-8"?>
<!-- Generator: Adobe Illustrator 23.0.0, SVG Export Plug-In . SVG Version: 6.00 Build 0)  -->
<svg version="1.1" id="图层_1" xmlns="http://www.w3.org/2000/svg" xmlns:xlink="http://www.w3.org/1999/xlink" x="0px" y="0px"
	 viewBox="0 0 32 32" style="enable-background:new 0 0 32 32;" xml:space="preserve">
<style type="text/css">
	.st0{fill:#202020;}
</style>
<path class="st0" d="M1,27.6V4.4C1,2.5,2.5,1,4.4,1h23.1C29.5,1,31,2.5,31,4.4v23.1c0,1.9-1.5,3.4-3.4,3.4H4.4C2.5,31,1,29.5,1,27.6
	z M26.7,28.4c0.9,0,1.7-0.8,1.7-1.7V5.3c0-0.9-0.8-1.7-1.7-1.7H5.3c-0.9,0-1.7,0.8-1.7,1.7v21.4c0,0.9,0.8,1.7,1.7,1.7H26.7z
	 M20.2,19.4l2.2-2.2l-12.6,0l2.1,2.1c0.5,0.5,0.5,1.3,0,1.8c-0.5,0.5-1.3,0.5-1.8,0l-4-4c-0.1-0.1-0.3-0.1-0.4-0.2
	c-0.3-0.3-0.4-0.6-0.4-1c0-0.3,0.1-0.7,0.4-1c0.1-0.1,0.2-0.2,0.4-0.2l4-4c0.5-0.5,1.3-0.5,1.8,0c0.5,0.5,0.5,1.3,0,1.8l-2.1,2.1
	h12.6l-2.2-2.2c-0.5-0.5-0.5-1.3,0-1.8s1.3-0.5,1.8,0l4.3,4.3c0.5,0.5,0.5,1.3,0,1.8L22,21.3c-0.5,0.5-1.3,0.5-1.8,0
	C19.7,20.8,19.7,19.9,20.2,19.4z"/>
</svg>
