<?xml version="1.0" encoding="utf-8"?>
<!-- Generator: Adobe Illustrator 23.0.0, SVG Export Plug-In . SVG Version: 6.00 Build 0)  -->
<svg version="1.1" id="图层_1" xmlns="http://www.w3.org/2000/svg" xmlns:xlink="http://www.w3.org/1999/xlink" x="0px" y="0px"
	 viewBox="0 0 32 32" style="enable-background:new 0 0 32 32;" xml:space="preserve">
<style type="text/css">
	.st0{fill:#202020;}
</style>
<g>
	<path class="st0" d="M23.4,11.8c0,0.5,0.4,0.9,0.9,0.9c0.5,0,0.9-0.4,0.9-0.9c0-0.5-0.4-0.9-0.9-0.9C23.8,10.9,23.4,11.3,23.4,11.8
		z"/>
	<path class="st0" d="M26.9,7.2h-0.8V2.9c0-1.6-1.3-2.9-2.9-2.9L9.5,0C7.9,0,6.7,1.3,6.7,2.9v4.4H5.1c-2.2,0-4,1.8-4,4v9.1
		c0,2.2,1.8,4,3.9,4h1.6v4.8c0,1.6,1.3,2.9,2.9,2.9h13.7c1.6,0,2.9-1.3,2.9-2.9l0-4.8h1.3c2,0,3.6-1.8,3.6-4l0-9.1
		C30.9,9,29.1,7.2,26.9,7.2z M9,2.9c0-0.3,0.3-0.6,0.6-0.6h13.7c0.3,0,0.6,0.3,0.6,0.6v4.4H9V2.9z M23.8,29.1c0,0.3-0.3,0.6-0.6,0.6
		H9.5c-0.3,0-0.6-0.3-0.6-0.6V18.4c0-0.3,0.3-0.6,0.6-0.6h13.7c0.3,0,0.6,0.3,0.6,0.6V29.1z M28.6,20.3c0,0.9-0.6,1.7-1.3,1.7h-1.3
		v-3.6c0-1.6-1.3-2.9-2.9-2.9l-13.7,0c-1.6,0-2.9,1.3-2.9,2.9V22H5c-0.9,0-1.6-0.8-1.6-1.7l0-9.1c0-1,0.8-1.7,1.7-1.7h21.8
		c1,0,1.7,0.8,1.7,1.7V20.3z"/>
	<path class="st0" d="M20.6,22.7h-8.9c-0.5,0-0.9-0.4-0.9-0.9c0-0.5,0.4-0.9,0.9-0.9h8.9c0.5,0,0.9,0.4,0.9,0.9
		C21.5,22.3,21.1,22.7,20.6,22.7z"/>
	<path class="st0" d="M20.6,26.9h-8.9c-0.5,0-0.9-0.4-0.9-0.9s0.4-0.9,0.9-0.9h8.9c0.5,0,0.9,0.4,0.9,0.9S21.1,26.9,20.6,26.9z"/>
</g>
</svg>
