<?xml version="1.0" encoding="utf-8"?>
<!-- Generator: Adobe Illustrator 23.0.0, SVG Export Plug-In . SVG Version: 6.00 Build 0)  -->
<svg version="1.1" id="图层_1" xmlns="http://www.w3.org/2000/svg" xmlns:xlink="http://www.w3.org/1999/xlink" x="0px" y="0px"
	 viewBox="0 0 32 32" style="enable-background:new 0 0 32 32;" xml:space="preserve">
<style type="text/css">
	.st0{fill:#202020;}
</style>
<g>
	<path class="st0" d="M28.9,12c-1.7-0.7-3.9-1.1-6.2-1.1s-4.5,0.4-6.2,1.1c-2,0.8-3.1,2.1-3.1,3.4v12c0,1.4,1.1,2.6,3.1,3.4
		c1.7,0.7,3.9,1.1,6.2,1.1s4.5-0.4,6.2-1.1c2-0.8,3.1-2.1,3.1-3.4v-12C32,14,30.9,12.8,28.9,12z M29.8,22.5c0,0.6-2.4,2.2-7,2.2
		s-7-1.5-7-2.2v-2.4c1.8,0.9,4.4,1.4,7,1.4s5.3-0.5,7-1.4V22.5z M15.7,15.4c0-0.8,2.5-2.3,7-2.3s7,1.5,7,2.3v1.7
		c0,0.6-2.4,2.2-7,2.2s-7-1.5-7-2.2V15.4z M22.8,29.8c-4.6,0-7-1.5-7-2.3v-2.1c1.8,0.9,4.4,1.4,7,1.4s5.3-0.5,7-1.4v2.1
		C29.8,28.2,27.3,29.8,22.8,29.8z"/>
	<path class="st0" d="M10.8,28l-8,0c-0.2,0-0.4-0.2-0.4-0.4L2.5,2.7c0-0.2,0.2-0.4,0.4-0.4l15.7,0.1c0.2,0,0.4,0.2,0.4,0.4V7
		c0,0.6,0.5,1.3,1.4,1.2c0.6-0.1,1.1-0.5,1.1-1.1V2.6c0-1.4-1.1-2.6-2.5-2.6H2.5C1.1,0,0,1.2,0,2.6v25.5c0,1.4,1.1,2.6,2.5,2.6h8.4
		c0.6,0,1.1-0.5,1.1-1.1C12,29,12.1,28.1,10.8,28z"/>
	<path class="st0" d="M17.9,6.8c0-0.6-0.5-1.1-1.1-1.1h-12c-0.6,0-1.1,0.5-1.1,1.1s0.5,1.1,1.1,1.1h12C17.4,7.9,17.9,7.4,17.9,6.8z
		 M4.7,11.7c-0.6,0-1.1,0.5-1.1,1.1c0,0.6,0.5,1.1,1.1,1.1h5.9c0.6,0,1.1-0.5,1.1-1.1c0-0.6-0.5-1.1-1.1-1.1H4.7z"/>
</g>
</svg>
