<?xml version="1.0" encoding="utf-8"?>
<!-- Generator: Adobe Illustrator 23.0.0, SVG Export Plug-In . SVG Version: 6.00 Build 0)  -->
<svg version="1.1" id="图层_1" xmlns="http://www.w3.org/2000/svg" xmlns:xlink="http://www.w3.org/1999/xlink" x="0px" y="0px"
	 viewBox="0 0 32 32" style="enable-background:new 0 0 32 32;" xml:space="preserve">
<style type="text/css">
	.st0{fill:#202020;}
</style>
<path class="st0" d="M8.1,24.4h14.3c0.8,0,1.4-0.6,1.4-1.4s-0.6-1.4-1.4-1.4H8.1c-0.8,0-1.4,0.6-1.4,1.4S7.4,24.4,8.1,24.4z
	 M30.6,1.4c-0.6-0.5-1.5-0.5-2,0L17.1,12.7c-0.6,0.5-0.6,1.4,0,2c0.6,0.5,1.5,0.5,2,0L30.6,3.4C31.1,2.9,31.1,2,30.6,1.4L30.6,1.4z
	 M8.1,18.8h4.8c0.8,0,1.4-0.6,1.4-1.4S13.7,16,12.9,16H8.1c-0.8,0-1.4,0.6-1.4,1.4S7.4,18.8,8.1,18.8z M29.1,16
	c-0.6,0-1.1,0.4-1.3,0.9h-0.1v9.4c0,1-0.9,1.9-1.9,1.9h-20c-1.1,0-1.9-0.8-1.9-1.9V6.6c0-1,0.9-1.9,1.9-1.9h9.5V4.7
	c0.6-0.2,1-0.7,1-1.3c0-0.6-0.4-1.1-1-1.3V1.9H4.8C2.7,1.9,1,3.6,1,5.7v21.6C1,29.3,2.7,31,4.8,31h21.9c2.1,0,3.8-1.7,3.8-3.8V16.9
	h-0.1C30.2,16.4,29.7,16,29.1,16L29.1,16z"/>
</svg>
