<?xml version="1.0" encoding="utf-8"?>
<!-- Generator: Adobe Illustrator 23.0.0, SVG Export Plug-In . SVG Version: 6.00 Build 0)  -->
<svg version="1.1" id="图层_1" xmlns="http://www.w3.org/2000/svg" xmlns:xlink="http://www.w3.org/1999/xlink" x="0px" y="0px"
	 viewBox="0 0 32 32" style="enable-background:new 0 0 32 32;" xml:space="preserve">
<style type="text/css">
	.st0{fill:#202020;}
</style>
<g>
	<path class="st0" d="M31.5,29.1l-7.4-7.4c1.8-2.3,2.8-5.1,2.8-8.3C26.9,6,20.9,0,13.5,0C6,0,0,6,0,13.5c0,7.4,6,13.5,13.5,13.5
		c3.1,0,6-1.1,8.3-2.8l7.4,7.4c0.3,0.3,0.8,0.5,1.2,0.5s0.9-0.2,1.2-0.5C32.2,30.8,32.2,29.8,31.5,29.1L31.5,29.1L31.5,29.1z
		 M3,13.5C3,7.7,7.7,3,13.5,3C19.3,3,24,7.7,24,13.5C24,19.3,19.3,24,13.5,24C7.7,24,3,19.3,3,13.5L3,13.5z"/>
	<path class="st0" d="M18.4,12h-3.5V8.5c0-0.8-0.6-1.4-1.4-1.4c-0.8,0-1.4,0.6-1.4,1.4V12H8.5c-0.8,0-1.4,0.6-1.4,1.4
		c0,0.8,0.6,1.4,1.4,1.4H12v3.5c0,0.8,0.6,1.4,1.4,1.4c0.8,0,1.4-0.6,1.4-1.4v-3.5h3.5c0.8,0,1.4-0.6,1.4-1.4
		C19.9,12.7,19.2,12,18.4,12L18.4,12z"/>
</g>
</svg>
