<?xml version="1.0" encoding="utf-8"?>
<!-- Generator: Adobe Illustrator 23.0.0, SVG Export Plug-In . SVG Version: 6.00 Build 0)  -->
<svg version="1.1" id="close" xmlns="http://www.w3.org/2000/svg" xmlns:xlink="http://www.w3.org/1999/xlink" x="0px" y="0px"
	 viewBox="0 0 48 48" style="enable-background:new 0 0 48 48;" xml:space="preserve">
<style type="text/css">
	.st0{fill:#FAFAFA;}
</style>
<path class="st0" d="M27.7,24L47.3,4.5c1-1,1-2.6,0-3.6l-0.1-0.1c-1-1-2.6-1-3.6,0L24,20.3L4.5,0.7c-1-1-2.6-1-3.6,0L0.8,0.9
	c-1,1-1,2.6-0.1,3.5c0,0,0,0,0.1,0.1L20.3,24L0.8,43.6c-1,1-1,2.6,0,3.6l0.1,0.1c1,1,2.6,1,3.6,0L24,27.7l19.6,19.5c1,1,2.6,1,3.6,0
	l0.1-0.1c1-1,1-2.6,0-3.6L27.7,24L27.7,24z"/>
</svg>
