<?xml version="1.0" encoding="utf-8"?>
<!-- Generator: Adobe Illustrator 23.0.0, SVG Export Plug-In . SVG Version: 6.00 Build 0)  -->
<svg version="1.1" id="图层_1" xmlns="http://www.w3.org/2000/svg" xmlns:xlink="http://www.w3.org/1999/xlink" x="0px" y="0px"
	 viewBox="0 0 48 48" style="enable-background:new 0 0 48 48;" xml:space="preserve">
<style type="text/css">
	.st0{fill:#202020;}
</style>
<g>
	<path class="st0" d="M10.9,26.5h4.8v-4.3h-4.8V26.5z M45.6,35.1c0,1.2-1.1,2.2-2.4,2.2H4.8c-1.3,0-2.4-1-2.4-2.2V13.6
		c0-1.2,1.1-2.2,2.4-2.2h38.4c1.3,0,2.4,1,2.4,2.2C45.6,13.6,45.6,35.1,45.6,35.1z M43.2,9.3H4.8c-2.6,0-4.8,2-4.8,4.3v21.5
		c0,2.3,2.2,4.3,4.8,4.3h38.4c2.6,0,4.8-2,4.8-4.3V13.6C48,11.3,45.8,9.3,43.2,9.3z M36,20.1h4.8v-4.3H36V20.1z M32.5,26.5h4.6v-4.3
		h-4.8v4.3H32.5z M7.2,20.1H12v-4.3H7.2V20.1z M13.3,33h21.6v-4.3H13.3V33z M28.8,20.1h4.8v-4.3h-4.8V20.1z M14.4,20.1h4.8v-4.3
		h-4.8V20.1z M17.9,26.5h4.8v-4.3h-4.8V26.5z M21.6,20.1h4.8v-4.3h-4.8V20.1z M25.1,26.5h4.8v-4.3h-4.8V26.5z"/>
	<path class="st0" d="M43.3,43.4l-0.2,0.2c-0.8,0.7-1.9,0.8-2.5,0.2L3.6,7C3,6.4,3.2,5.3,4,4.6l0.2-0.2C5,3.6,6.1,3.5,6.7,4.1
		l37,36.9C44.3,41.6,44.1,42.7,43.3,43.4z"/>
</g>
</svg>
