<?xml version="1.0" encoding="utf-8"?>
<!-- Generator: Adobe Illustrator 23.0.0, SVG Export Plug-In . SVG Version: 6.00 Build 0)  -->
<svg version="1.1" id="password" xmlns="http://www.w3.org/2000/svg" xmlns:xlink="http://www.w3.org/1999/xlink" x="0px" y="0px"
	 viewBox="0 0 48 48" style="enable-background:new 0 0 48 48;" xml:space="preserve">
<style type="text/css">
	.st0{fill:#202020;}
</style>
<path class="st0" d="M42.3,48H5.7C2.6,48,0,45.9,0,43.3V23.4c0-2.6,2.5-4.7,5.7-4.7h1.4v-4.6C7.1,6.1,14.7,0,24,0
	s16.9,6.1,16.9,14.1v4.7h1.4c3.2,0,5.7,2.1,5.7,4.7v19.9C48,45.9,45.4,48,42.3,48z M21.6,33.2v5.2c0,1.1,1.1,2,2.4,2s2.4-0.9,2.4-2
	v-5.2c1.4-0.7,2.4-1.9,2.4-3.4c0-2.2-2.2-4-4.8-4s-4.8,1.8-4.8,4C19.2,31.3,20.2,32.6,21.6,33.2z M36,14c0-5.4-5.4-9.9-12-9.9
	S12,8.5,12,14v4.8H36V14z"/>
</svg>
