<?xml version="1.0" encoding="utf-8"?>
<!-- Generator: Adobe Illustrator 23.0.0, SVG Export Plug-In . SVG Version: 6.00 Build 0)  -->
<svg version="1.1" id="图层_1" xmlns="http://www.w3.org/2000/svg" xmlns:xlink="http://www.w3.org/1999/xlink" x="0px" y="0px"
	 viewBox="0 0 48 48" style="enable-background:new 0 0 48 48;" xml:space="preserve">
<style type="text/css">
	.st0{fill:#202020;}
</style>
<path class="st0" d="M47.6,20l-2.9-2.3c0.4-0.4,0.7-0.7,1-1.1c0.4-0.5,0.4-1.3-0.1-1.7c-0.5-0.4-1.3-0.4-1.7,0.1
	c-0.1,0.1-9.5,10.7-19.8,10.7C13.7,25.7,3.8,15.1,3.7,15c-0.5-0.5-1.2-0.5-1.7-0.1c-0.5,0.4-0.5,1.2-0.1,1.7
	c0.1,0.1,0.5,0.5,1.2,1.2l-2.8,2.7c-0.5,0.5-0.4,1.2,0,1.7c0.5,0.5,1.2,0.5,1.7,0l2.8-2.8c1.2,1,2.4,2,3.7,2.9l-2.5,4
	c-0.4,0.6-0.2,1.3,0.4,1.6c0.6,0.3,1.3,0.2,1.7-0.4l2.4-3.9c1.4,0.9,2.8,1.6,4.3,2.3l-1.5,3.8c-0.1,0.4-0.1,0.8,0.1,1.1
	c0.2,0.3,0.6,0.5,1,0.5c0.5,0,0.9-0.3,1.1-0.8l1.5-3.8c1.8,0.6,3.7,1.1,5.7,1.2v4.1c0,0.7,0.5,1.2,1.2,1.2s1.2-0.5,1.2-1.2v-4.1
	c1.9-0.1,3.8-0.6,5.6-1.2l1.3,3.7c0.2,0.6,0.9,0.9,1.5,0.7c0.6-0.2,0.9-0.9,0.8-1.5L33.1,26c1.5-0.7,3-1.5,4.3-2.4l2.5,3.2
	c0.2,0.2,0.5,0.4,0.8,0.5c0.3,0,0.6,0,0.9-0.2c0.5-0.4,0.6-1.1,0.2-1.7l-2.5-3.1c1.2-0.9,2.4-1.9,3.5-2.9l3.1,2.5
	c0.2,0.2,0.5,0.3,0.8,0.3c0.5,0,1-0.3,1.1-0.8C48.1,20.9,48,20.3,47.6,20z"/>
</svg>
