<?xml version="1.0" encoding="utf-8"?>
<!-- Generator: Adobe Illustrator 23.0.0, SVG Export Plug-In . SVG Version: 6.00 Build 0)  -->
<svg version="1.1" id="图层_1" xmlns="http://www.w3.org/2000/svg" xmlns:xlink="http://www.w3.org/1999/xlink" x="0px" y="0px"
	 viewBox="0 0 48 48" style="enable-background:new 0 0 48 48;" xml:space="preserve">
<style type="text/css">
	.st0{fill:#202020;}
</style>
<path class="st0" d="M24,10.5C13.5,10.5,4.5,16,0,24c4.5,8,13.5,13.5,24,13.5c10.5,0,19.5-5.5,24-13.5C43.5,16,34.5,10.5,24,10.5z
	 M19.5,15.6c2.2,0,4,1.8,4,4c0,2.2-1.8,4.1-4,4.1s-4.1-1.8-4.1-4.1C15.5,17.5,17.3,15.6,19.5,15.6z M35.8,30.3
	c-3.5,2-7.6,3.1-11.8,3.1c-4.2,0-8.3-1.1-11.8-3.1c-2.8-1.6-5.2-3.8-7-6.3c1.8-2.6,4.2-4.7,7-6.3c0.2-0.1,0.4-0.2,0.6-0.3
	C12.3,18.5,12,19.7,12,21c0,6,5.4,10.8,12,10.8c6.6,0,12-4.8,12-10.8c0-1.3-0.3-2.5-0.7-3.7c0.2,0.1,0.4,0.2,0.6,0.3
	c2.8,1.6,5.2,3.8,7,6.3C41,26.6,38.7,28.7,35.8,30.3z"/>
</svg>
