<?xml version="1.0" encoding="utf-8"?>
<!-- Generator: Adobe Illustrator 23.0.0, SVG Export Plug-In . SVG Version: 6.00 Build 0)  -->
<svg version="1.1" id="username" xmlns="http://www.w3.org/2000/svg" xmlns:xlink="http://www.w3.org/1999/xlink" x="0px" y="0px"
	 viewBox="0 0 48 48" style="enable-background:new 0 0 48 48;" xml:space="preserve">
<style type="text/css">
	.st0{fill:#202020;}
</style>
<path class="st0" d="M10.3,13.7c0,7.6,6.1,13.7,13.7,13.7s13.7-6.1,13.7-13.7S31.6,0,24,0S10.3,6.1,10.3,13.7L10.3,13.7L10.3,13.7z
	 M13.7,30.9C6.1,30.9,0,37,0,44.6l0,0C0,46.5,1.5,48,3.4,48h41.2c1.9,0,3.4-1.5,3.4-3.4l0,0c0-7.6-6.1-13.7-13.7-13.7H13.7
	L13.7,30.9z"/>
</svg>
