<?xml version="1.0" encoding="utf-8"?>
<!-- Generator: Adobe Illustrator 23.0.0, SVG Export Plug-In . SVG Version: 6.00 Build 0)  -->
<svg version="1.1" id="隔离模式" xmlns="http://www.w3.org/2000/svg" xmlns:xlink="http://www.w3.org/1999/xlink" x="0px"
	 y="0px" viewBox="0 0 256 32" style="enable-background:new 0 0 256 32;" xml:space="preserve">
<style type="text/css">
	.st0{fill:#2F7DBB;}
	.st1{fill:#636262;}
</style>
<g>
	<g>
		<g>
			<path class="st0" d="M120.3,31.3c-1.1-0.6-1.3-1.4-1.3-2.5c0.1-4.2,0-8.3,0-12.5c0-0.5-0.1-1.2-0.4-1.6c-1.7-2.4-3.5-4.8-5.3-7.1
				c-0.3-0.4-1.1-0.8-1.6-0.8c-2.4-0.1-4.8,0-7.3,0c-1.9,0-2.2,0.4-2.2,2.2c0,1.2,0.1,2.3,0,3.5c-0.1,1.3,0.4,1.8,1.8,1.8
				c2.4-0.1,4.8,0,7.3,0c1.5,0,2.1,0.6,2.1,2.1c0,1.6-0.6,2.3-2.1,2.3c-2.4,0-4.7,0-7.1,0c-1.5,0-2,0.6-2,1.9c0.1,1.4,0,2.8,0,4.2
				c0,1.4,0.5,1.9,2,1.9c2.2,0,4.4,0,6.7,0c1.9,0,2.6,0.5,2.6,2.1c0,1.6-0.7,2.3-2.4,2.6h-10c-2,0-3.2-0.9-3.2-2.8
				c0-4.5,0-9.1,0-13.6c0-3.2,0-6.4,0-9.6c0-2.2,0.7-2.8,3.1-2.8c4.1,0,8.3,0.1,12.4,0c1.3,0,2.1,0.4,2.7,1.5c1.6,2.5,3.3,5,5.1,7.7
				c2.1-3,4.1-5.9,6.1-8.8c0.2-0.1,0.4-0.2,0.6-0.4c1.1,0,2.3-0.1,3.4-0.1c5.1,0,10.2,0,15.3,0c1.6,0,2.3,0.6,2.3,2.1
				c0,1.5-0.7,2.2-2.3,2.2c-5.2,0-10.3,0.1-15.5,0c-1,0-1.6,0.3-2.2,1c-1.6,2.3-3.4,4.5-5.1,6.8c-0.3,0.5-0.5,1.1-0.5,1.7
				c0,4.2-0.1,8.4,0,12.6c0,1.2-0.4,2-1.6,2.4C121.1,31.3,120.7,31.3,120.3,31.3z"/>
			<path class="st0" d="M65.2,31.3c-0.7,0-0.6-1.3-0.7-2c-0.1-4.2,0-8.5-0.1-12.7c0-0.8-0.3-1.6-0.8-2.2c-1.9-2.8-3.9-5.4-5.8-8.2
				c-1.3-1.6-0.7-2.8,0.7-3.4c1-0.3,2.2,0,2.8,0.9c1.7,2.7,3.4,5.3,5.3,8.1c0.4-0.6,4-5.9,5.4-8.2c0.8-1.3,1.8-0.9,2.8-0.4
				c1,0.5,1.6,1.2,1.1,2.3c0-0.2-6,8.5-6,8.5c-0.7,1.2-0.7,2.5-0.7,2.5v13c0,0,0,1.9-0.7,1.9C68.2,31.3,65.1,31.3,65.2,31.3z"/>
			<path class="st0" d="M51,31.1c-3.8,0-7.5,0-11.3,0c-1.3-0.5-1.6-1.5-1.3-2.6c0.3-1.3,1.2-1.6,2.5-1.6c2.4,0.1,4.8,0,7.3,0
				c2,0,3.3-1,3.5-2.8c0.1-1,0.1-2-0.2-3c-0.3-1.4-1.4-2.2-3-2.2c-1.3,0-2.6,0-3.9,0c-3.7,0-5.8-1.5-6.2-4.9
				c-0.3-2.3-0.2-4.6,0.1-6.9C39,4,41.1,2.5,44.4,2.4c2.8,0,5.7,0,8.5,0c1.7,0,2.6,0.8,2.6,2.2c0,1.3-0.9,2.1-2.5,2.1
				c-2.4,0-4.7,0-7.1,0c-2.6,0-3.6,1.2-3.6,4.2c0,2.6,1.1,3.7,3.6,3.7c1.1,0,2.2,0,3.2,0c3.8,0,5.9,1.5,6.3,5
				c0.3,2.3,0.2,4.7-0.1,7.1C54.9,28.9,53.6,30.6,51,31.1z"/>
			<path class="st0" d="M89.7,31.1c-3.5,0-7.1,0-10.6,0c-1.4-0.5-1.6-1.5-1.3-2.7c0.3-1.2,1.2-1.5,2.5-1.5c2.3,0,4.5,0,6.8,0
				c1.9,0,3-0.9,3.2-2.7c0.1-0.9,0.1-1.7,0-2.6c-0.2-1.8-1.3-2.7-3.3-2.7c-1.2,0-2.4,0-3.6,0c-3,0-5.1-1.3-5.4-4.1
				c-0.3-2.7-0.3-5.6,0-8.3c0.3-2.3,2.2-4.2,5.5-4.1c2.6,0.1,5.3,0,7.9,0.1c1.6,0,2.5,0.8,2.5,2.2c0,1.4-0.8,2.1-2.4,2.1
				c-2.2,0-4.4,0-6.7,0c-2.1,0-3.3,1.1-3.5,3.1c0,0.6,0,1.2,0,1.7c0.1,1.9,1.3,3,3.4,3c1.1,0,2.2,0,3.3,0c3.2,0,5.3,1.4,5.7,4.4
				c0.3,2.6,0.3,5.2,0,7.8C93.4,28.8,92.2,30.6,89.7,31.1z"/>
			<path class="st0" d="M135.7,18.4c-0.4,0.6-1.1,1.1-1.1,1.7c-0.2,1.6,0,3.2,0,4.8c0,1.2,0.5,1.6,1.8,1.6c3-0.1,6.1,0,9.1,0
				c1.7,0,2.4,0.6,2.4,2.2c0,1.5-0.7,2.7-2.4,2.7h-12.6c-1.7,0-2.5-1.1-2.5-2.7c-0.1-4.1,0-8.1,0-12.2c0-1.7,0.6-2.2,2.5-2.2
				c3.5,0,6.9,0,10.4,0c1.3,0,2,0.5,2.1,1.6c0.2,2.4-2.4,2.1-2.4,2.1s-4,0-6,0C136.4,18,136,18.2,135.7,18.4z"/>
			<path class="st0" d="M7.3,29.7c11-2.8,18.4-9.2,21.2-20.8c2.4,2.7,3.2,8.4,1.9,12.3c-1.9,5.6-5.7,9-11,10.4
				C16.2,32.3,9.3,31.3,7.3,29.7z"/>
			<path class="st0" d="M2.6,25.1C-2,17.8,0,9.5,5.2,5c5.4-4.7,13.7-5,18.3-1.5C12.6,6.3,5.4,13.1,2.6,25.1z"/>
			<path class="st0" d="M15.7,22c-3,0-5.3-2.4-5.3-5.3c0-2.9,2.5-5.3,5.4-5.3c2.9,0,5.3,2.4,5.3,5.3C21.1,19.7,18.8,22,15.7,22z"/>
			<path class="st0" d="M11.7,24.2c-2.8,0.5-5.7,1-8.9,1.5c1.6-2.9,3-5.3,4.6-8.3C8.1,20.6,9.5,22.5,11.7,24.2z"/>
			<path class="st0" d="M28.1,8.2c-1.4,2.5-2.8,5-4.4,7.9c-0.6-3.2-2.1-5.1-4.3-6.8C22.5,8.5,28,8.1,28.1,8.2z"/>
		</g>
	</g>
	<g>
		<g>
			<path class="st1" d="M217.8,25.4c-1.3-0.4-2.5-0.7-2.5-1.5v0c0-0.6,0.6-1.1,1.5-1.1c0.5,0,1,0.1,1.6,0.3c0,0,0,0,0,0
				c0,0,0.1,0,0.1,0c0.4,0.1,1.5,0.3,2.4-1.1c-1.2-0.7-2.7-1.2-4-1.2c-2.2,0-3.9,1.2-3.9,3.3v0c0,2.1,1.8,2.7,3.4,3.2
				c1.3,0.4,2.4,0.7,2.4,1.5v0c0,0.7-0.6,1.2-1.7,1.2c-0.7,0-1.5-0.2-2.3-0.5c-0.2-0.1-1.4-0.5-2.4,0.9c1.4,1,3.1,1.6,4.6,1.6
				c2.3,0,4.1-1.1,4.1-3.4v0C221.2,26.6,219.4,25.9,217.8,25.4L217.8,25.4z M197.5,15.9h-2l5,15.9h2l5-15.9h-2l-4,12L197.5,15.9z
				 M232.8,20.7c-3.4,0-5.8,2.6-5.8,5.7c0,3.1,2.5,5.6,5.8,5.6c3.4,0,5.9-2.6,5.9-5.6C238.6,23.2,236.2,20.7,232.8,20.7z
				 M232.8,29.9c-1.9,0-3.3-1.6-3.3-3.5c0-1.9,1.3-3.5,3.3-3.5c2,0,3.4,1.6,3.4,3.5C236.1,28.3,234.8,29.9,232.8,29.9L232.8,29.9z
				 M246.1,20.7c-1.7,0-2.7,0.9-3.4,1.9v-1.7h-2.5v10.8h2.5v-6.1c0-1.7,1-2.7,2.5-2.7c1.5,0,2.3,1,2.3,2.6v6.1h2.5v-6.9
				C250,22.4,248.5,20.7,246.1,20.7L246.1,20.7z M208.6,31.9h2.5V21h-2.5V31.9z M208.6,19h2.5v-3h-2.5V19z M222.7,31.9h2.5V21h-2.5
				V31.9z M222.7,19h2.5v-3h-2.5V19z"/>
			<g>
				<polygon class="st1" points="164.5,31.9 161.7,31.9 155.4,20.3 155.3,20.3 155.3,31.9 152.7,31.9 152.7,15.9 155.5,15.9 
					161.8,27.5 161.9,27.5 161.9,15.9 164.5,15.9 				"/>
				<polygon class="st1" points="191.7,31.9 189.6,31.9 187.8,23.5 187.5,23.5 185.7,31.9 183.6,31.9 180.7,20.8 183.1,20.8 
					184.6,28.1 184.8,28.1 186.4,20.8 188.9,20.8 190.5,28.1 190.7,28.1 192.2,20.8 194.6,20.8 				"/>
				<path class="st1" d="M177.2,30.8c-1.1,0.7-2.3,1.1-3.7,1.1c-1.8,0-3.3-0.5-4.5-1.5c-1.2-1-1.8-2.4-1.8-4.1
					c0-1.7,0.6-3.1,1.8-4.1c1.2-1,2.7-1.5,4.5-1.5c1.6,0,2.9,0.4,3.9,1.3c1,0.9,1.5,2.3,1.5,4.3l-9.2,0c0,1.4,0.4,2.4,1.1,3
					c0.7,0.6,1.6,0.9,2.7,0.9c0.8,0,1.5-0.2,2-0.5c0.5-0.4,0.9-0.9,1-1.6h2.5C178.9,29.2,178.3,30.1,177.2,30.8z M175.3,22.9
					c-0.5-0.3-1.2-0.5-2-0.5c-0.8,0-1.4,0.2-2,0.5c-0.6,0.3-1.1,1-1.4,1.8h6.5C176.2,23.9,175.8,23.3,175.3,22.9z"/>
			</g>
		</g>
		<g>
			<g>
				<path class="st0" d="M225.5,0c-5.6,0-5.6,2.2-5.6,3.3v7.7c0,2.2,1.1,3.3,5.6,3.3h24.8c3.4,0,5.6,0,5.6-2.2V3.3
					c0-2.2,0-3.3-5.6-3.3H225.5z M236,10.6c-0.5,0.4-1.3,0.6-2.2,0.6h-3.1v-8h2.9c0.9,0,1.6,0.2,2.1,0.5c0.5,0.3,0.7,0.8,0.7,1.4
					c0,0.4-0.2,0.8-0.5,1.1s-0.7,0.6-1.1,0.7v0c0.6,0.1,1,0.3,1.4,0.6c0.4,0.3,0.5,0.8,0.5,1.3C236.8,9.6,236.5,10.2,236,10.6z
					 M247,10.4c-0.5,0.6-1.2,0.9-2.1,0.9s-1.5-0.3-2.1-0.9c-0.5-0.6-0.9-1.3-0.9-2.1s0.3-1.5,0.9-2.2c0.5-0.6,1.2-0.9,2.1-0.9
					s1.5,0.3,2.1,0.9c0.5,0.6,0.8,1.3,0.8,2.1C247.8,9,247.5,9.7,247,10.4z M243.9,9.3c0.3,0.3,0.6,0.5,1,0.5c0.4,0,0.7-0.2,1-0.5
					c0.3-0.3,0.4-0.7,0.4-1.1c0-0.4-0.1-0.8-0.4-1.1c-0.3-0.3-0.6-0.5-1-0.5c-0.4,0-0.7,0.2-1,0.5c-0.3,0.3-0.4,0.7-0.4,1.1
					C243.5,8.6,243.6,9,243.9,9.3z M240.1,10.9h-1.5V5.6h1.5V10.9z M240.2,4.5h-1.7V3.3h1.7V4.5z"/>
				<path class="st0" d="M233.9,6.2c0.2-0.2,0.3-0.4,0.3-0.8c0-0.6-0.4-0.9-1.3-0.9h-0.7v1.9h0.8C233.4,6.5,233.7,6.4,233.9,6.2z"/>
				<path class="st0" d="M234.2,8c-0.2-0.2-0.6-0.3-1-0.3h-1v2.1h1c0.4,0,0.8-0.1,1-0.3c0.2-0.2,0.4-0.5,0.4-0.8
					C234.5,8.4,234.4,8.2,234.2,8z"/>
			</g>
		</g>
	</g>
</g>
</svg>
