<?xml version="1.0" encoding="utf-8"?>
<!-- Generator: Adobe Illustrator 23.0.0, SVG Export Plug-In . SVG Version: 6.00 Build 0)  -->
<svg version="1.1" id="logo" xmlns="http://www.w3.org/2000/svg" xmlns:xlink="http://www.w3.org/1999/xlink" x="0px" y="0px"
	 viewBox="0 0 256 256" style="enable-background:new 0 0 256 256;" xml:space="preserve">
<style type="text/css">
	.st0{fill:#2F7DBB;}
</style>
<g>
	<path class="st0" d="M60.2,238.6c90.6-23.4,151.9-76.7,175.1-173.7c19.8,22.4,26.5,69.7,15.4,102.4c-15.7,46.6-46.6,74.8-91,86.8
		C133.3,259.9,76.9,251.9,60.2,238.6z"/>
	<path class="st0" d="M21.3,200.4c-38.1-61.4-21.3-130,21.5-168C87.3-7.2,155.5-9.5,193.6,20C103.7,43.6,44.2,100.5,21.3,200.4z"/>
	<path class="st0" d="M129.1,174.2c-24.4-0.2-43.8-20-43.4-44.4c0.4-24,20.5-44,44.4-44c23.8,0,43.9,20.3,43.9,44.4
		C174.1,155.4,154.6,174.4,129.1,174.2z"/>
	<path class="st0" d="M96.8,192.7c-23.4,4-46.9,8.1-73.5,12.6c13.1-23.8,24.6-44.6,38-69C66.7,162.3,78.3,178.7,96.8,192.7z"/>
	<path class="st0" d="M232,59.2c-11.5,20.8-23,41.6-36.3,65.8c-4.8-26.8-17.3-42.9-35.7-56.6C185.9,61.4,231.1,58.3,232,59.2z"/>
</g>
</svg>
