<?xml version="1.0" encoding="utf-8"?>
<!-- Generator: Adobe Illustrator 23.0.0, SVG Export Plug-In . SVG Version: 6.00 Build 0)  -->
<svg version="1.1" id="图层_1" xmlns="http://www.w3.org/2000/svg" xmlns:xlink="http://www.w3.org/1999/xlink" x="0px" y="0px"
	 viewBox="0 0 32 16" style="enable-background:new 0 0 32 16;" xml:space="preserve">
<style type="text/css">
	.st0{fill:#202020;}
</style>
<path class="st0" d="M31.6,2.1L17,15.6c-0.5,0.5-1.4,0.5-1.9,0l0,0c0,0,0,0,0,0c0,0-0.1,0-0.1,0L0.4,2.2c-0.5-0.5-0.5-1.3,0-1.7
	C0.9,0,1.7,0,2.3,0.4L16.1,13L29.7,0.4c0.5-0.5,1.4-0.5,1.9,0C32.1,0.8,32.1,1.6,31.6,2.1C31.6,2.1,31.6,2.1,31.6,2.1L31.6,2.1z"/>
</svg>
