<?xml version="1.0" encoding="utf-8"?>
<!-- Generator: Adobe Illustrator 23.0.0, SVG Export Plug-In . SVG Version: 6.00 Build 0)  -->
<svg version="1.1" id="hide_x5F_function" xmlns="http://www.w3.org/2000/svg" xmlns:xlink="http://www.w3.org/1999/xlink" x="0px"
	 y="0px" viewBox="0 0 32 32" style="enable-background:new 0 0 32 32;" xml:space="preserve">
<style type="text/css">
	.st0{fill:#202020;}
	.st1{fill:#FFFFFF;}
	.st2{opacity:0.1;fill:#202020;}
</style>
<g>
	<g>
		<path class="st0" d="M16,0C7.2,0,0,7.2,0,16c0,8.8,7.2,16,16,16c8.8,0,16-7.2,16-16C32,7.2,24.8,0,16,0z M30.5,16
			c0,8-6.5,14.5-14.5,14.5S1.5,24,1.5,16S8,1.5,16,1.5S30.5,8,30.5,16z"/>
		<circle class="st1" cx="16" cy="16" r="14.5"/>
	</g>
	<polygon class="st2" points="13.6,23.5 5.8,15.5 8.7,12.6 13.8,17.9 23.4,8.5 26.2,11.3 	"/>
</g>
</svg>
