<svg id="图层_1" data-name="图层 1" xmlns="http://www.w3.org/2000/svg" viewBox="0 0 32 32"><defs><style>.cls-1{fill:#202020;}</style></defs><title>btn_sex_woman</title><path class="cls-1" d="M30.87,26.33c-1.7-5.71-4.84-5.9-5.52-6.06l-.24-.05c-2.05-1.85-.65-9.57-.65-9.57C24.46-1.13,16.3,0,16.3,0h-.6S7.54-1.13,7.54,10.65c0,0,1.4,7.72-.65,9.57l-.24.05c-.68.16-3.82.35-5.52,6.06a3.08,3.08,0,0,0,.22,2.31C2.75,31.21,10.08,32,16,32s13.25-.79,14.65-3.36A3.08,3.08,0,0,0,30.87,26.33Zm-8.4-16.18.07,0c.31.14.44.84.3,1.64a2.46,2.46,0,0,1-.62,1.33.44.44,0,0,1-.31.11.35.35,0,0,1-.16-.08,9.54,9.54,0,0,1-3.05,4.51,4.43,4.43,0,0,1-2.67,1,4.47,4.47,0,0,1-2.68-1,9.49,9.49,0,0,1-3-4.5.31.31,0,0,1-.15.08.44.44,0,0,1-.37-.16,2.46,2.46,0,0,1-.56-1.28c-.14-.75,0-1.42.24-1.61l.12,0a.4.4,0,0,1,.3.1h0v0c0-.33.48-4,3.29-3.74l8.6,4.32m-.52,9.65a7.27,7.27,0,0,1-10.52,0,1.3,1.3,0,0,1-.29-.62h0l.24-.1.15-.07a1.8,1.8,0,0,0,1.1-1.54h0a7,7,0,0,0,2.33,1.55A4.87,4.87,0,0,0,16,20a4.79,4.79,0,0,0,1.76-.34,7,7,0,0,0,2.31-1.53h0c0,1.08,1.13,1.56,1.43,1.67v0A1.3,1.3,0,0,1,21.26,20.46Z"/></svg>