<?xml version="1.0" encoding="utf-8"?>
<!-- Generator: Adobe Illustrator 23.0.0, SVG Export Plug-In . SVG Version: 6.00 Build 0)  -->
<svg version="1.1" id="图层_1" xmlns="http://www.w3.org/2000/svg" xmlns:xlink="http://www.w3.org/1999/xlink" x="0px" y="0px"
	 viewBox="0 0 32 32" style="enable-background:new 0 0 32 32;" xml:space="preserve">
<style type="text/css">
	.st0{fill:#BDC0C6;}
</style>
<g>
	<g>
		<path class="st0" d="M27.5,1C29.4,1,31,2.6,31,4.5v23c0,1.9-1.6,3.5-3.5,3.5h-23C2.6,31,1,29.4,1,27.5v-23C1,2.6,2.6,1,4.5,1H27.5
			 M27.5,0h-23C2,0,0,2,0,4.5v23C0,30,2,32,4.5,32h23c2.5,0,4.5-2,4.5-4.5v-23C32,2,30,0,27.5,0L27.5,0z"/>
	</g>
</g>
</svg>
