<?xml version="1.0" encoding="utf-8"?>
<!-- Generator: Adobe Illustrator 23.0.0, SVG Export Plug-In . SVG Version: 6.00 Build 0)  -->
<svg version="1.1" id="图层_1" xmlns="http://www.w3.org/2000/svg" xmlns:xlink="http://www.w3.org/1999/xlink" x="0px" y="0px"
	 viewBox="0 0 32 32" style="enable-background:new 0 0 32 32;" xml:space="preserve">
<style type="text/css">
	.st0{fill:#202020;}
</style>
<g>
	<path class="st0" d="M22,17.3c0,1.7-2.7,3.1-6,3.1s-6-1.4-6-3.1c-5,0.4-9,4.5-9,9.4C1,32,5.4,32,10.9,32h10.2c5.5,0,9.9,0,9.9-5.2
		C31,21.8,27.1,17.8,22,17.3z"/>
	<path class="st0" d="M8.2,8.8c0,0.1,0,0.1,0,0.2c0.5,5.2,3.6,9.2,7.5,9.2c3.9,0,7.1-4.1,7.5-9.4c0.1-0.4,0.1-0.8,0.1-1.2
		c0-0.4,0-0.8-0.1-1.2C22.7,2.8,19.5,0,15.7,0c-3.8,0-6.9,2.8-7.5,6.5C8.2,6.8,8.1,7.2,8.1,7.6c0,0.2,0,0.3,0,0.5
		C8.2,8.3,8.2,8.6,8.2,8.8z M11.1,4.7c0,0,5.2,2.4,8.8,0c0,0,2.1,3.2,1.5,4.4l1.1-1.2c0,0.3,0,0.6-0.1,0.9c-0.4,4.6-3.2,8.2-6.6,8.2
		c-3.4,0-6.1-3.5-6.6-8c0.3,0.1,0.7,0.2,1.1,0.5C10.2,9.5,9.5,5.3,11.1,4.7z"/>
</g>
</svg>
