<?xml version="1.0" encoding="utf-8"?>
<!-- Generator: Adobe Illustrator 23.0.0, SVG Export Plug-In . SVG Version: 6.00 Build 0)  -->
<svg version="1.1" id="图层_1" xmlns="http://www.w3.org/2000/svg" xmlns:xlink="http://www.w3.org/1999/xlink" x="0px" y="0px"
	 viewBox="0 0 32 32" style="enable-background:new 0 0 32 32;" xml:space="preserve">
<style type="text/css">
	.st0{fill:#202020;}
</style>
<path class="st0" d="M13.6,3.2C7.9,3.2,3.2,7.9,3.2,13.6C3.2,19.3,7.9,24,13.6,24c2.7,0,5.3-1.1,7.3-3l0.1-0.1c0,0,0.1-0.1,0.1-0.1
	c4-4.1,3.9-10.7-0.2-14.7C18.9,4.3,16.3,3.2,13.6,3.2z M13.6,0c7.5,0,13.6,6.1,13.6,13.6c0,3.1-1,6-2.9,8.4l7.2,7.3
	c0.6,0.6,0.6,1.6,0,2.3s-1.6,0.6-2.3,0L22,24.3C16.1,28.9,7.6,27.9,2.9,22S-0.7,7.6,5.2,2.9C7.6,1,10.5,0,13.6,0z"/>
</svg>
