<?xml version="1.0" encoding="utf-8"?>
<!-- Generator: Adobe Illustrator 23.0.0, SVG Export Plug-In . SVG Version: 6.00 Build 0)  -->
<svg version="1.1" id="图层_1" xmlns="http://www.w3.org/2000/svg" xmlns:xlink="http://www.w3.org/1999/xlink" x="0px" y="0px"
	 viewBox="0 0 32 32" style="enable-background:new 0 0 32 32;" xml:space="preserve">
<style type="text/css">
	.st0{fill:#202020;}
</style>
<path class="st0" d="M18.5,16l13-13c0.7-0.7,0.7-1.7,0-2.4l-0.1-0.1c-0.7-0.7-1.7-0.7-2.4,0l-13,13L3,0.5c-0.7-0.7-1.7-0.7-2.4,0
	L0.5,0.6c-0.7,0.6-0.7,1.7,0,2.4c0,0,0,0,0,0l13,13l-13,13c-0.7,0.7-0.7,1.7,0,2.4l0.1,0.1c0.7,0.7,1.7,0.7,2.4,0l13-13l13,13
	c0.7,0.7,1.7,0.7,2.4,0l0.1-0.1c0.7-0.7,0.7-1.7,0-2.4L18.5,16L18.5,16z"/>
</svg>
