<?xml version="1.0" encoding="utf-8"?>
<!-- Generator: Adobe Illustrator 23.0.0, SVG Export Plug-In . SVG Version: 6.00 Build 0)  -->
<svg version="1.1" id="nav_x5F_syseye_x5F_logo" xmlns="http://www.w3.org/2000/svg" xmlns:xlink="http://www.w3.org/1999/xlink"
	 x="0px" y="0px" viewBox="0 0 32 32" style="enable-background:new 0 0 32 32;" xml:space="preserve">
<style type="text/css">
	.st0{fill:#FAFAFB;}
	.st1{fill:#8DB569;}
</style>
<g>
	<g>
		<path class="st0" d="M10.7,18.6c7.1-1.8,11.9-6,13.7-13.6c1.5,1.7,2.1,5.4,1.2,8c-1.2,3.6-3.6,5.8-7.1,6.8
			C16.4,20.3,12,19.7,10.7,18.6z"/>
		<path class="st0" d="M7.7,15.7C4.7,10.9,6,5.5,9.3,2.5c3.5-3.1,8.8-3.3,11.8-1C14.1,3.4,9.5,7.9,7.7,15.7z"/>
		<path class="st0" d="M16.1,13.6c-1.9,0-3.4-1.6-3.4-3.5c0-1.9,1.6-3.4,3.5-3.4c1.9,0,3.4,1.6,3.4,3.5
			C19.6,12.1,18.1,13.6,16.1,13.6z"/>
		<path class="st0" d="M13.6,15.1c-1.8,0.3-3.7,0.6-5.7,1c1-1.9,1.9-3.5,3-5.4C11.2,12.7,12.1,14,13.6,15.1z"/>
		<path class="st0" d="M24.1,4.6c-0.9,1.6-1.8,3.3-2.8,5.1c-0.4-2.1-1.4-3.4-2.8-4.4C20.5,4.8,24.1,4.6,24.1,4.6z"/>
	</g>
	<g>
		<path class="st1" d="M23.8,32c-0.3-0.2-0.4-0.4-0.4-0.8c0-1.3,0-2.6,0-3.9c0-0.2,0-0.4-0.1-0.5c-0.5-0.7-1-1.5-1.5-2.2
			c-0.1-0.1-0.3-0.2-0.5-0.2c-0.7,0-1.4,0-2.1,0c-0.5,0-0.6,0.1-0.6,0.7c0,0.4,0,0.7,0,1.1c0,0.4,0.1,0.6,0.5,0.5c0.7,0,1.4,0,2.1,0
			c0.4,0,0.6,0.2,0.6,0.6c0,0.5-0.2,0.7-0.6,0.7c-0.7,0-1.4,0-2.1,0c-0.4,0-0.6,0.2-0.6,0.6c0,0.4,0,0.9,0,1.3
			c0,0.5,0.1,0.6,0.6,0.6c0.6,0,1.3,0,1.9,0c0.6,0,0.7,0.2,0.7,0.7c0,0.5-0.2,0.7-0.7,0.8h-2.9c-0.6,0-0.9-0.3-0.9-0.9
			c0-1.4,0-2.8,0-4.2c0-1,0-2,0-3c0-0.7,0.2-0.9,0.9-0.9c1.2,0,2.4,0,3.6,0c0.4,0,0.6,0.1,0.8,0.5c0.5,0.8,1,1.6,1.5,2.4
			c0.6-0.9,1.2-1.8,1.8-2.7c0.1,0,0.1-0.1,0.2-0.1c0.3,0,0.7,0,1,0c1.5,0,3,0,4.4,0c0.5,0,0.7,0.2,0.7,0.6c0,0.5-0.2,0.7-0.7,0.7
			c-1.5,0-3,0-4.5,0c-0.3,0-0.5,0.1-0.6,0.3c-0.5,0.7-1,1.4-1.5,2.1c-0.1,0.1-0.2,0.4-0.2,0.5c0,1.3,0,2.6,0,3.9
			c0,0.4-0.1,0.6-0.5,0.8C24,32,23.9,32,23.8,32z"/>
		<path class="st0" d="M7.8,32c-0.2,0-0.2-0.4-0.2-0.6c0-1.3,0-2.6,0-4c0-0.2-0.1-0.5-0.2-0.7c-0.5-0.9-1.1-1.7-1.7-2.5
			c-0.4-0.5-0.2-0.9,0.2-1.1c0.3-0.1,0.6,0,0.8,0.3c0.5,0.8,1,1.6,1.5,2.5c0.1-0.2,1.2-1.8,1.6-2.5c0.2-0.4,0.5-0.3,0.8-0.1
			c0.3,0.1,0.5,0.4,0.3,0.7c0-0.1-1.7,2.6-1.7,2.6c-0.2,0.4-0.2,0.8-0.2,0.8v4.1c0,0,0,0.6-0.2,0.6C8.7,32,7.8,32,7.8,32z"/>
		<path class="st0" d="M3.7,31.9c-1.1,0-2.2,0-3.3,0C0,31.8,0,31.5,0,31.1c0.1-0.4,0.4-0.5,0.7-0.5c0.7,0,1.4,0,2.1,0
			c0.6,0,0.9-0.3,1-0.9c0-0.3,0-0.6-0.1-0.9c-0.1-0.4-0.4-0.7-0.9-0.7c-0.4,0-0.7,0-1.1,0c-1.1,0-1.7-0.5-1.8-1.5
			c-0.1-0.7-0.1-1.4,0-2.2c0.1-1,0.7-1.4,1.7-1.4c0.8,0,1.6,0,2.5,0C4.7,23,5,23.3,5,23.7c0,0.4-0.3,0.6-0.7,0.6c-0.7,0-1.4,0-2.1,0
			c-0.8,0-1.1,0.4-1,1.3c0,0.8,0.3,1.1,1,1.1c0.3,0,0.6,0,0.9,0c1.1,0,1.7,0.5,1.8,1.6c0.1,0.7,0.1,1.5,0,2.2
			C4.8,31.3,4.4,31.8,3.7,31.9z"/>
		<path class="st0" d="M14.9,31.9c-1,0-2.1,0-3.1,0c-0.4-0.2-0.5-0.5-0.4-0.9c0.1-0.4,0.4-0.5,0.7-0.5c0.7,0,1.3,0,2,0
			c0.5,0,0.9-0.3,0.9-0.8c0-0.3,0-0.5,0-0.8c-0.1-0.6-0.4-0.8-1-0.8c-0.3,0-0.7,0-1,0c-0.9,0-1.5-0.4-1.6-1.3
			c-0.1-0.9-0.1-1.7,0-2.6c0.1-0.7,0.6-1.3,1.6-1.3c0.8,0,1.5,0,2.3,0c0.5,0,0.7,0.2,0.7,0.7c0,0.4-0.2,0.7-0.7,0.7
			c-0.6,0-1.3,0-1.9,0c-0.6,0-1,0.3-1,1c0,0.2,0,0.4,0,0.5c0,0.6,0.4,0.9,1,0.9c0.3,0,0.6,0,0.9,0c0.9,0,1.5,0.4,1.7,1.4
			c0.1,0.8,0.1,1.6,0,2.4C16,31.2,15.6,31.8,14.9,31.9z"/>
		<path class="st0" d="M28.2,28c-0.1,0.2-0.3,0.3-0.3,0.5c0,0.5,0,1,0,1.5c0,0.4,0.2,0.5,0.5,0.5c0.9,0,1.8,0,2.6,0
			c0.5,0,0.7,0.2,0.7,0.7c0,0.5-0.2,0.9-0.7,0.9h-3.7c-0.5,0-0.7-0.3-0.7-0.8c0-1.3,0-2.5,0-3.8c0-0.5,0.2-0.7,0.7-0.7c1,0,2,0,3,0
			c0.4,0,0.6,0.2,0.6,0.5c0,0.8-0.7,0.7-0.7,0.7s-1.2,0-1.7,0C28.4,27.9,28.3,27.9,28.2,28z"/>
	</g>
</g>
</svg>
