<?xml version="1.0" encoding="utf-8"?>
<!-- Generator: Adobe Illustrator 23.0.0, SVG Export Plug-In . SVG Version: 6.00 Build 0)  -->
<svg version="1.1" id="图层_1" xmlns="http://www.w3.org/2000/svg" xmlns:xlink="http://www.w3.org/1999/xlink" x="0px" y="0px"
	 viewBox="0 0 32 32" style="enable-background:new 0 0 32 32;" xml:space="preserve">
<style type="text/css">
	.st0{fill:#FAFAFA;}
</style>
<path class="st0" d="M28.9,19.6l-2-1.7C27,17.2,27,16.6,27,16c0-0.6-0.1-1.2-0.1-1.8l2-1.7c0.3-0.3,0.4-0.7,0.3-1.1l0-0.1
	c-0.6-1.6-1.4-3-2.5-4.3l-0.1-0.1c-0.3-0.3-0.7-0.4-1.1-0.3L23,7.5c-0.9-0.8-2-1.4-3.1-1.8L19.4,3c-0.1-0.4-0.4-0.7-0.8-0.8l-0.1,0
	c-1.6-0.3-3.3-0.3-5,0l-0.1,0C13,2.3,12.7,2.6,12.6,3l-0.5,2.7C11,6.1,10,6.7,9,7.5L6.5,6.6c-0.4-0.1-0.8,0-1.1,0.3L5.3,7
	c-1.1,1.3-1.9,2.7-2.5,4.3l0,0.1c-0.1,0.4,0,0.8,0.3,1.1l2.1,1.8C5.1,14.8,5,15.4,5,16c0,0.6,0,1.2,0.1,1.8l-2.1,1.8
	c-0.3,0.3-0.4,0.7-0.3,1.1l0,0.1c0.6,1.6,1.4,3,2.5,4.3l0.1,0.1c0.3,0.3,0.7,0.4,1.1,0.3L9,24.5c0.9,0.8,2,1.4,3.1,1.8l0.5,2.7
	c0.1,0.4,0.4,0.7,0.8,0.8l0.1,0c0.8,0.1,1.6,0.2,2.5,0.2c0.8,0,1.7-0.1,2.5-0.2l0.1,0c0.4-0.1,0.7-0.4,0.8-0.8l0.5-2.7
	c1.1-0.4,2.2-1,3.1-1.8l2.5,0.9c0.4,0.1,0.8,0,1.1-0.3l0.1-0.1c1.1-1.3,1.9-2.7,2.5-4.3l0-0.1C29.3,20.3,29.2,19.8,28.9,19.6z
	 M16,20.7c-2.8,0-5-2.2-5-5s2.2-5,5-5s5,2.2,5,5S18.8,20.7,16,20.7z"/>
</svg>
