<?xml version="1.0" encoding="utf-8"?>
<!-- Generator: Adobe Illustrator 23.0.0, SVG Export Plug-In . SVG Version: 6.00 Build 0)  -->
<svg version="1.1" id="图层_1" xmlns="http://www.w3.org/2000/svg" xmlns:xlink="http://www.w3.org/1999/xlink" x="0px" y="0px"
	 viewBox="0 0 32 32" style="enable-background:new 0 0 32 32;" xml:space="preserve">
<style type="text/css">
	.st0{fill:#FAFAFA;}
</style>
<g>
	<path class="st0" d="M16,2C8.3,2,2,8.3,2,16s6.3,14,14,14s14-6.3,14-14C30.1,8.3,23.8,2,16,2z M16,28.1C9.4,28.1,3.9,22.6,3.9,16
		S9.4,3.9,16,3.9S28.1,9.4,28.1,16C28.1,22.6,22.6,28.1,16,28.1z"/>
	<path class="st0" d="M17,7.6C16.7,8,16.5,8.5,16.5,9c0,0.5,0.1,0.9,0.4,1.2c0.3,0.3,0.7,0.5,1.1,0.5c0.4,0,0.9-0.1,1.4-0.7
		C19.8,9.6,20,9.1,20,8.6c0-0.4-0.1-0.9-0.4-1.2C18.9,6.8,17.7,6.9,17,7.6L17,7.6L17,7.6z"/>
	<path class="st0" d="M17.8,20.7c-0.5,0.5-1.3,1.1-1.6,1.2c0.1-0.7,0.7-2.2,1.6-4.9c0.8-2.7,0.9-3.2,0.9-3.4c0-0.4-0.1-0.7-0.4-1
		c-0.7-0.5-1.8-0.4-3.2,0.4c-0.7,0.4-1.6,1.1-2.5,2.1L12,15.7l1.6,1.2l0.4-0.4c0.4-0.4,1.4-1.2,1.6-1.4c-1.2,4-2.5,7.1-2.5,8.2
		c0,0.5,0.2,0.9,0.4,1.2c0.3,0.3,0.7,0.5,1.2,0.5c0.4,0,1-0.2,1.7-0.5c0.5-0.4,1.4-1.1,2.7-2.2l0.5-0.5l-1.4-1.4L17.8,20.7
		L17.8,20.7z"/>
</g>
</svg>
