<?xml version="1.0" encoding="utf-8"?>
<!-- Generator: Adobe Illustrator 23.0.0, SVG Export Plug-In . SVG Version: 6.00 Build 0)  -->
<svg version="1.1" id="图层_1" xmlns="http://www.w3.org/2000/svg" xmlns:xlink="http://www.w3.org/1999/xlink" x="0px" y="0px"
	 viewBox="0 0 32 32" style="enable-background:new 0 0 32 32;" xml:space="preserve">
<style type="text/css">
	.st0{fill:#FAFAFA;}
</style>
<path class="st0" d="M16,16c3.9,0,7-3.1,7-7s-3.1-7-7-7S9,5.1,9,9S12.1,16,16,16z M20.8,17.7h-0.9c-1.3,0.6-2.6,0.9-4,0.9
	s-2.8-0.3-4-0.9H11C7,17.7,3.7,21,3.7,25v2.3C3.7,28.8,5,30,6.3,30h19.3c1.4,0,2.6-1.3,2.6-2.6V25C28.3,21,24.9,17.7,20.8,17.7z"/>
</svg>
