<?xml version="1.0" encoding="utf-8"?>
<!-- Generator: Adobe Illustrator 23.0.0, SVG Export Plug-In . SVG Version: 6.00 Build 0)  -->
<svg version="1.1" id="图层_1" xmlns="http://www.w3.org/2000/svg" xmlns:xlink="http://www.w3.org/1999/xlink" x="0px" y="0px"
	 viewBox="0 0 32 32" style="enable-background:new 0 0 32 32;" xml:space="preserve">
<style type="text/css">
	.st0{fill:#FAFAFA;}
</style>
<g>
	<path class="st0" d="M16.7,21.9c-0.1,0-0.2-0.3,0-1.1l1.3-4.8c0.5-1.8,0.3-2.9-0.6-2.9c-2.3,0.4-4.5,1.5-6.3,3.1l0.5,0.8
		c0.7-0.5,1.5-0.8,2.3-1c0.2,0,0.2,0.3,0,1l-1.2,4.6c-0.7,2.6,0,3.2,1,3.2h0.2c2.2-0.4,4.1-1.5,5.6-3.2l-0.5-0.7
		C18.3,21.3,17.5,21.7,16.7,21.9z"/>
	<path class="st0" d="M16.8,10.7c1.3,0,2.4-0.9,2.4-2.2c0-0.2,0-0.3,0-0.5c-0.1-0.9-1-1.5-1.8-1.3h0c-1.3-0.1-2.5,0.9-2.6,2.2
		C14.8,10,15.4,10.7,16.8,10.7z"/>
	<path class="st0" d="M30,15.7C29.9,8,23.5,1.9,15.8,2C8.1,2.1,1.9,8.4,2,16.2S8.4,30.1,16.2,30S30.1,23.6,30,15.7
		C30,15.8,30,15.8,30,15.7z M16.2,28C9.5,28.1,4.1,22.8,4,16.2C3.9,9.5,9.2,4.1,15.8,4c6.6-0.1,12,5.2,12.2,11.8c0,0,0,0,0,0.1
		C28.1,22.5,22.8,27.9,16.2,28z"/>
</g>
</svg>
