<?xml version="1.0" encoding="utf-8"?>
<!-- Generator: Adobe Illustrator 23.0.0, SVG Export Plug-In . SVG Version: 6.00 Build 0)  -->
<svg version="1.1" id="图层_1" xmlns="http://www.w3.org/2000/svg" xmlns:xlink="http://www.w3.org/1999/xlink" x="0px" y="0px"
	 viewBox="0 0 32 32" style="enable-background:new 0 0 32 32;" xml:space="preserve">
<style type="text/css">
	.st0{fill:#FAFAFA;}
</style>
<path class="st0" d="M10.9,24.1c-0.6,0.6-1.3,1-2,1.2l-5.2,1.6C3,27,2.3,26.6,2.1,26c-0.1-0.2-0.1-0.5,0-0.7l1.6-5.1
	c0.2-0.7,0.7-1.4,1.2-2L20.1,3.3c1.6-1.6,4.3-1.7,6-0.1c1.7,1.6,1.7,4.2,0.1,5.9c0,0-0.1,0.1-0.1,0.1L10.9,24.1z M18.6,7.6l-12.3,12
	c-0.3,0.3-0.6,0.7-0.7,1.1l-1.2,3.7l3.8-1.1c0.4-0.1,0.8-0.4,1.2-0.7l12.3-12L18.6,7.6L18.6,7.6z M20.1,6.2l3.1,3l1.5-1.5
	c0.9-0.8,0.9-2.2,0-3s-2.2-0.9-3.1,0c0,0,0,0,0,0L20.1,6.2z M3.2,30H29c0.6,0,1-0.5,1-1c0-0.6-0.5-1-1-1H3.2c-0.6,0-1,0.5-1,1
	C2.2,29.5,2.6,30,3.2,30z"/>
</svg>
