<?xml version="1.0" encoding="utf-8"?>
<!-- Generator: Adobe Illustrator 23.0.0, SVG Export Plug-In . SVG Version: 6.00 Build 0)  -->
<svg version="1.1" id="图层_1" xmlns="http://www.w3.org/2000/svg" xmlns:xlink="http://www.w3.org/1999/xlink" x="0px" y="0px"
	 viewBox="0 0 32 32" style="enable-background:new 0 0 32 32;" xml:space="preserve">
<style type="text/css">
	.st0{fill:#FAFAFA;}
</style>
<g>
	<path class="st0" d="M16,4c2.8,0,5,2.2,5,5s-2.2,5-5,5s-5-2.2-5-5S13.2,4,16,4 M20.8,19.7c3,0,5.5,2.4,5.5,5.3v2.3
		c0,0.3-0.3,0.6-0.6,0.6H6.3c-0.3,0-0.6-0.3-0.6-0.6V25c0-2.9,2.4-5.3,5.3-5.3h0.3c1.4,0.6,2.9,0.9,4.5,0.9c1.6,0,3.1-0.3,4.5-0.9
		H20.8 M16,2c-3.9,0-7,3.1-7,7s3.1,7,7,7s7-3.1,7-7S19.9,2,16,2L16,2z M20.8,17.7h-0.9c-1.3,0.6-2.6,0.9-4,0.9c-1.4,0-2.8-0.3-4-0.9
		H11C7,17.7,3.7,21,3.7,25v2.3C3.7,28.8,5,30,6.3,30h19.3c1.4,0,2.6-1.3,2.6-2.6V25C28.3,21,24.9,17.7,20.8,17.7L20.8,17.7z"/>
</g>
</svg>
