<?xml version="1.0" encoding="utf-8"?>
<!-- Generator: Adobe Illustrator 23.0.0, SVG Export Plug-In . SVG Version: 6.00 Build 0)  -->
<svg version="1.1" id="图层_1" xmlns="http://www.w3.org/2000/svg" xmlns:xlink="http://www.w3.org/1999/xlink" x="0px" y="0px"
	 viewBox="0 0 32 32" style="enable-background:new 0 0 32 32;" xml:space="preserve">
<style type="text/css">
	.st0{fill:#FAFAFA;}
</style>
<path class="st0" d="M16.1,16.7c2.6-1.3,4.2-4,4.2-7C20.3,5.5,17,2.1,12.7,2c0,0,0,0,0,0C8.5,2.1,5.2,5.5,5.2,9.8c0,3,1.7,5.7,4.3,7
	c-4.9,0.5-8.7,4.7-8.6,9.6v0.5c0,1.4,0.9,2.3,2.9,2.7c2.1,0.3,4.3,0.4,6.5,0.3h5.3c5,0,9.4,0,9.4-3.1v-0.5
	C25,21.3,21.1,17.1,16.1,16.7z M23.4,17c2.2-1.2,3.5-3.5,3.5-6c0-3.7-2.9-6.8-6.7-6.9h-1v0.1c0.4,0.5,0.7,1,0.9,1.5
	c2.8,0,5.2,2.3,5.2,5.1c0,2.8-2.3,5.2-5.1,5.2H20l2.8,2.6c3.6,0.2,6.5,3.2,6.5,6.8v0.5c0,0.1,0,0.3-0.2,0.3
	c-0.4,0.2-0.8,0.4-1.2,0.5c-0.7,0.1-1.3,0.2-2,0.2c0,0.5-0.1,1.1-0.4,1.6v0.1h0.1c2.8,0,5.4-0.5,5.4-2.8v-0.3
	C31.1,21.1,27.8,17.4,23.4,17z"/>
</svg>
