<?xml version="1.0" encoding="utf-8"?>
<!-- Generator: Adobe Illustrator 23.0.0, SVG Export Plug-In . SVG Version: 6.00 Build 0)  -->
<svg version="1.1" id="图层_1" xmlns="http://www.w3.org/2000/svg" xmlns:xlink="http://www.w3.org/1999/xlink" x="0px" y="0px"
	 viewBox="0 0 32 32" style="enable-background:new 0 0 32 32;" xml:space="preserve">
<style type="text/css">
	.st0{fill:#FAFAFA;}
</style>
<g>
	<path class="st0" d="M12.7,4c1.5,0,2.9,0.6,3.9,1.7c1.1,1.1,1.6,2.5,1.6,4.1c0,2.2-1.2,4.2-3.1,5.2l-2.3,1.2l-2.4-1.2
		c-2-1-3.2-3-3.2-5.2C7.2,6.6,9.7,4.1,12.7,4 M12.3,18.5l3.6,0.2c4,0.3,7.1,3.6,7.1,7.7v0.5c0,1.1-4.6,1.1-7.4,1.1h-5.3h0l0,0
		c-0.4,0-0.9,0-1.3,0c-1.6,0-3.2-0.1-4.7-0.3c-1.2-0.3-1.2-0.6-1.2-0.8l0-0.6c0-3.9,2.9-7.2,6.8-7.6L12.3,18.5 M12.7,2
		C8.5,2.1,5.2,5.5,5.2,9.8c0,3,1.7,5.7,4.3,7c-4.9,0.5-8.7,4.7-8.6,9.6v0.5c0,1.4,0.9,2.3,2.9,2.7C5.5,29.9,7.2,30,8.9,30
		c0.5,0,0.9,0,1.4,0h5.3c5,0,9.4,0,9.4-3.1v-0.5c0.1-5.1-3.9-9.3-8.9-9.6c2.6-1.3,4.2-4,4.2-7C20.3,5.5,17,2.1,12.7,2
		C12.7,2,12.7,2,12.7,2L12.7,2z M20.2,4.1h-1v0.1c0.4,0.5,0.7,1,0.9,1.5c0,0,0,0,0,0c2.8,0,5.1,2.3,5.2,5.1c0,2.8-2.3,5.2-5.1,5.2
		H20l2.8,2.6c3.6,0.2,6.5,3.2,6.5,6.8v0.5c0,0.1,0,0.3-0.2,0.3c-0.4,0.2-0.8,0.4-1.2,0.5c-0.7,0.1-1.3,0.2-2,0.2
		c0,0.5-0.1,1.1-0.4,1.6v0.1h0.1c2.8,0,5.4-0.5,5.4-2.8v-0.3c0.1-4.4-3.3-8.1-7.6-8.5c2.2-1.2,3.5-3.5,3.5-6C27,7.2,24,4.1,20.2,4.1
		L20.2,4.1z"/>
</g>
</svg>
