<?xml version="1.0" encoding="utf-8"?>
<!-- Generator: Adobe Illustrator 23.0.0, SVG Export Plug-In . SVG Version: 6.00 Build 0)  -->
<svg version="1.1" id="图层_1" xmlns="http://www.w3.org/2000/svg" xmlns:xlink="http://www.w3.org/1999/xlink" x="0px" y="0px"
	 viewBox="0 0 32 32" style="enable-background:new 0 0 32 32;" xml:space="preserve">
<style type="text/css">
	.st0{fill:#FAFAFA;}
</style>
<g>
	<path class="st0" d="M16,4c0.5,0,1,0,1.5,0.1l0.4,2c0.1,0.7,0.6,1.3,1.3,1.5c0.9,0.3,1.8,0.8,2.5,1.5c0.4,0.3,0.8,0.5,1.3,0.5
		c0.2,0,0.5,0,0.7-0.1l1.9-0.7c0.6,0.8,1.1,1.7,1.5,2.7l-1.5,1.3c-0.5,0.5-0.8,1.2-0.7,1.8C25,15,25,15.5,25,16c0,0.5,0,1-0.1,1.5
		c-0.1,0.7,0.1,1.4,0.7,1.8l1.5,1.3c-0.4,1-0.9,1.8-1.5,2.7l-1.9-0.7c-0.2-0.1-0.4-0.1-0.7-0.1c-0.5,0-0.9,0.2-1.3,0.5
		c-0.8,0.6-1.6,1.1-2.6,1.5c-0.7,0.2-1.1,0.8-1.3,1.5l-0.4,2C17,28,16.5,28,16,28c-0.5,0-1,0-1.5-0.1l-0.4-2
		c-0.1-0.7-0.6-1.3-1.3-1.5c-0.9-0.3-1.8-0.8-2.5-1.5c-0.4-0.3-0.8-0.5-1.3-0.5c-0.2,0-0.5,0-0.7,0.1l-1.9,0.7
		c-0.6-0.8-1.1-1.7-1.5-2.7l1.5-1.3c0.5-0.5,0.8-1.2,0.7-1.8C7.1,17,7,16.5,7,16c0-0.5,0-1,0.1-1.5c0.1-0.7-0.1-1.4-0.7-1.8
		l-1.5-1.3c0.4-1,0.9-1.9,1.5-2.7l1.9,0.7C8.6,9.5,8.8,9.5,9,9.5c0.5,0,0.9-0.2,1.3-0.5c0.8-0.6,1.6-1.1,2.5-1.5
		c0.7-0.2,1.1-0.8,1.3-1.5l0.4-2C15,4,15.5,4,16,4 M16,20.7c2.8,0,5-2.2,5-5s-2.2-5-5-5s-5,2.2-5,5S13.2,20.7,16,20.7 M16,2
		c-0.8,0-1.7,0.1-2.5,0.2l-0.1,0C13,2.3,12.7,2.6,12.6,3l-0.5,2.7C11,6.1,10,6.7,9,7.5L6.5,6.6c-0.1,0-0.2-0.1-0.3-0.1
		c-0.3,0-0.6,0.1-0.8,0.4L5.3,7c-1.1,1.3-1.9,2.7-2.5,4.3l0,0.1c-0.1,0.4,0,0.8,0.3,1.1l2.1,1.8C5.1,14.8,5,15.4,5,16
		c0,0.6,0,1.2,0.1,1.8l-2.1,1.8c-0.3,0.3-0.4,0.7-0.3,1.1l0,0.1c0.6,1.6,1.4,3,2.5,4.3l0.1,0.1c0.2,0.2,0.5,0.4,0.8,0.4
		c0.1,0,0.2,0,0.3-0.1L9,24.5c0.9,0.8,2,1.4,3.1,1.8l0.5,2.7c0.1,0.4,0.4,0.7,0.8,0.8l0.1,0c0.8,0.1,1.6,0.2,2.5,0.2
		c0.8,0,1.7-0.1,2.5-0.2l0.1,0c0.4-0.1,0.7-0.4,0.8-0.8l0.5-2.7c1.1-0.4,2.2-1,3.1-1.8l2.5,0.9c0.1,0,0.2,0.1,0.3,0.1
		c0.3,0,0.6-0.1,0.8-0.4l0.1-0.1c1.1-1.3,1.9-2.7,2.5-4.3l0-0.1c0.1-0.4,0-0.8-0.3-1.1l-2-1.7C27,17.2,27,16.6,27,16
		s-0.1-1.2-0.1-1.8l2-1.7c0.3-0.3,0.4-0.7,0.3-1.1l0-0.1c-0.6-1.6-1.4-3-2.5-4.3l-0.1-0.1c-0.2-0.2-0.5-0.4-0.8-0.4
		c-0.1,0-0.2,0-0.3,0.1L23,7.5c-0.9-0.8-2-1.4-3.1-1.8L19.4,3c-0.1-0.4-0.4-0.7-0.8-0.8l-0.1,0C17.7,2.1,16.8,2,16,2L16,2z M16,18.7
		c-1.7,0-3-1.3-3-3c0-1.7,1.3-3,3-3c1.7,0,3,1.3,3,3C19,17.3,17.7,18.7,16,18.7L16,18.7z"/>
</g>
</svg>
