<?xml version="1.0" encoding="utf-8"?>
<!-- Generator: Adobe Illustrator 23.0.0, SVG Export Plug-In . SVG Version: 6.00 Build 0)  -->
<svg version="1.1" id="图层_1" xmlns="http://www.w3.org/2000/svg" xmlns:xlink="http://www.w3.org/1999/xlink" x="0px" y="0px"
	 viewBox="0 0 32 32" style="enable-background:new 0 0 32 32;" xml:space="preserve">
<style type="text/css">
	.st0{fill:#FAFAFA;}
</style>
<path class="st0" d="M8,5.7L10.2,3c0.3-0.6,0.9-1,1.6-1h8.5c0.7,0,1.3,0.4,1.6,1L24,5.7h6.2c1,0,1.8,0.8,1.8,1.8l0,0v20.6
	c0,1-0.8,1.8-1.8,1.8l0,0H1.8c-1,0-1.8-0.8-1.8-1.8l0,0V7.5c0-1,0.8-1.8,1.8-1.8H8z M11.5,4.4L9.3,7C9.2,7.3,8.9,7.5,8.6,7.5H2.7
	c-0.5,0-0.9,0.4-0.9,0.9l0,0v18.8c0,0.5,0.4,0.9,0.9,0.9h26.7c0.5,0,0.9-0.4,0.9-0.9V8.4c0-0.5-0.4-0.9-0.9-0.9h-5.9
	c-0.3,0-0.6-0.2-0.8-0.5l-2.2-2.7C20.3,4,20,3.8,19.7,3.8h-7.4C12,3.8,11.7,4,11.5,4.4z M24.4,16.9c-2.1-3.3-5.2-5.2-8.4-5.2
	s-6.3,1.9-8.4,5.2c-0.2,0.3-0.2,0.6,0,0.8c2.1,3.3,5.2,5.2,8.4,5.2s6.3-1.9,8.4-5.2C24.6,17.4,24.6,17.1,24.4,16.9z M16,21.4
	c-2.6,0-5.1-1.5-7-4.1c1.8-2.6,4.4-4.1,7-4.1s5.1,1.5,7,4.1C21.1,19.9,18.6,21.4,16,21.4z M13.4,17.3c0,1.5,1.1,2.7,2.6,2.7
	s2.6-1.2,2.6-2.7c0-1.5-1.1-2.7-2.6-2.7S13.4,15.8,13.4,17.3z"/>
</svg>
