<?xml version="1.0" encoding="utf-8"?>
<!-- Generator: Adobe Illustrator 23.0.0, SVG Export Plug-In . SVG Version: 6.00 Build 0)  -->
<svg version="1.1" id="图层_1" xmlns="http://www.w3.org/2000/svg" xmlns:xlink="http://www.w3.org/1999/xlink" x="0px" y="0px"
	 viewBox="0 0 32 32" style="enable-background:new 0 0 32 32;" xml:space="preserve">
<style type="text/css">
	.st0{fill:#FAFAFA;}
</style>
<path class="st0" d="M5.7,9l-1.3,2.1l3.1,2.1l-0.3,1.3c-0.1,0.5-0.2,1.1-0.2,1.6c0,0.6,0.1,1.1,0.2,1.6l0.3,1.3L4.4,21l1.3,2.1
	l3.5-1.5l1,0.8c0.8,0.7,1.8,1.3,2.9,1.6l1.3,0.4l0.4,3.6h2.5l0.4-3.6l1.3-0.4c1.1-0.4,2.1-0.9,2.9-1.6l1-0.8l3.5,1.5l1.3-2.1
	l-3.1-2.1l0.3-1.3c0.1-0.5,0.2-1.1,0.2-1.6c0-0.6-0.1-1.1-0.2-1.6l-0.3-1.3l3.1-2.1L26.3,9l-3.5,1.5l-1-0.8C21,8.9,20,8.4,18.9,8
	l-1.3-0.4L17.3,4h-2.5l-0.4,3.6L13.1,8C12,8.3,11,8.9,10.2,9.6l-1,0.9L5.7,9z M8.8,8.1c1.1-0.9,2.3-1.6,3.6-2l0.4-3.2
	C12.8,2.4,13.3,2,13.8,2h4.4c0.5,0,1,0.4,1.1,0.9l0.4,3.2c1.3,0.5,2.5,1.1,3.6,2l3.1-1.3c0.5-0.2,1.1-0.1,1.3,0.4l2.2,3.7
	c0.3,0.5,0.2,1-0.3,1.3L26.8,14c0.1,0.7,0.2,1.3,0.2,2c0,0.7-0.1,1.4-0.2,2l2.7,1.9c0.4,0.3,0.6,0.9,0.3,1.3l-2.2,3.7
	c-0.3,0.5-0.8,0.6-1.3,0.4l-3.1-1.3c-1.1,0.9-2.3,1.6-3.6,2l-0.4,3.2c-0.1,0.5-0.5,0.9-1.1,0.9h-4.4c-0.5,0-1-0.4-1.1-0.9l-0.4-3.2
	c-1.3-0.5-2.5-1.1-3.6-2l-3.1,1.3c-0.5,0.2-1.1,0.1-1.3-0.4l-2.2-3.7c-0.3-0.5-0.2-1,0.3-1.3L5.2,18C5,17.4,5,16.7,5,16.1
	c0-0.7,0.1-1.4,0.2-2l-2.7-1.9c-0.4-0.3-0.6-0.9-0.3-1.3l2.2-3.7c0.3-0.5,0.8-0.6,1.3-0.4L8.8,8.1z M16,20.6c-2.6,0-4.7-2-4.7-4.5
	s2.1-4.5,4.7-4.5s4.7,2,4.7,4.5S18.6,20.6,16,20.6z M16,18.6c1.5,0,2.6-1.1,2.6-2.5s-1.2-2.5-2.6-2.5s-2.6,1.1-2.6,2.5
	S14.5,18.6,16,18.6z"/>
</svg>
