<?xml version="1.0" encoding="utf-8"?>
<!-- Generator: Adobe Illustrator 23.0.0, SVG Export Plug-In . SVG Version: 6.00 Build 0)  -->
<svg version="1.1" id="图层_1" xmlns="http://www.w3.org/2000/svg" xmlns:xlink="http://www.w3.org/1999/xlink" x="0px" y="0px"
	 viewBox="0 0 32 32" style="enable-background:new 0 0 32 32;" xml:space="preserve">
<style type="text/css">
	.st0{fill:#FAFAFA;}
</style>
<path class="st0" d="M3,30H29c0.6,0,1-0.4,1-1c0-0.6-0.5-1-1-1H3c-0.6,0-1,0.4-1,1C2,29.6,2.5,30,3,30z M9.9,24.5l-5.2-5
	c-0.4,0.6-2.4,7.4-2.4,7.4L9.9,24.5z M26.7,4.4l-1.7-1.7c-0.9-0.9-2.4-0.9-3.4,0L20,4.4l5,5l1.7-1.7C27.7,6.8,27.7,5.3,26.7,4.4
	L26.7,4.4L26.7,4.4L26.7,4.4z M23.4,11l-5-5L6.6,17.7l5,5L23.4,11L23.4,11L23.4,11L23.4,11z"/>
</svg>
