<svg id="图层_1" data-name="图层 1" xmlns="http://www.w3.org/2000/svg" viewBox="0 0 32 32"><defs><style>.cls-1{fill:#fafafa;}</style></defs><title>menu_customize</title><path class="cls-1" d="M11,16.81,9.6,21.88a.61.61,0,0,0,.28.76.84.84,0,0,0,.65.29h.28l5-1.34c.1,0,.1,0,.19-.1L29.35,8.12A2,2,0,0,0,30,6.59a2.68,2.68,0,0,0-.74-1.82L27.77,3.53a2.53,2.53,0,0,0-1.85-.77,2,2,0,0,0-1.48.67L11.09,16.81ZM26.38,8.4,24.25,6.2l1.3-1.33a.58.58,0,0,1,.83.09l1.3,1.24a.78.78,0,0,1,.19.48c0,.1-.1.29-.1.38ZM23.14,7.35l2.13,2.2L15.63,19.2,13.5,17ZM12.38,18.44l1.86,1.91-2.5.67Zm14.93-4.11V26.85A1.16,1.16,0,0,1,26.11,28h-21a1.17,1.17,0,0,1-1.21-1.14V5.06A1.17,1.17,0,0,1,5.06,3.91H18.69a1,1,0,0,0,.93-1,1,1,0,0,0-.93-1H4.87A2.85,2.85,0,0,0,2,4.87V27a2.94,2.94,0,0,0,2.87,3H26.2a2.94,2.94,0,0,0,2.87-3V14.33a1,1,0,0,0-.92-1A1.11,1.11,0,0,0,27.31,14.33Z"/></svg>