<?xml version="1.0" encoding="utf-8"?>
<!-- Generator: Adobe Illustrator 23.0.0, SVG Export Plug-In . SVG Version: 6.00 Build 0)  -->
<svg version="1.1" id="图层_1" xmlns="http://www.w3.org/2000/svg" xmlns:xlink="http://www.w3.org/1999/xlink" x="0px" y="0px"
	 viewBox="0 0 32 32" style="enable-background:new 0 0 32 32;" xml:space="preserve">
<style type="text/css">
	.st0{fill:#FAFAFA;}
</style>
<path class="st0" d="M15.8,2C8.1,2.1,1.9,8.4,2,16.2C2.1,23.9,8.4,30.1,16.2,30S30.1,23.6,30,15.8c0,0,0-0.1,0-0.1
	C29.9,8,23.5,1.9,15.8,2z M17.4,6.7c0.9-0.1,1.7,0.5,1.8,1.3c0,0.2,0,0.3,0,0.5c-0.1,1.3-1.2,2.2-2.4,2.2c-1.4,0-2-0.7-2-1.8
	C14.9,7.5,16.1,6.6,17.4,6.7L17.4,6.7z M13.7,24.7c-1,0-1.7-0.6-1-3.2l1.2-4.6c0.2-0.7,0.2-1,0-1c-0.8,0.2-1.6,0.6-2.3,1l-0.5-0.8
	c1.8-1.6,3.9-2.7,6.3-3.1c1,0,1.1,1.1,0.6,2.9l-1.3,4.8c-0.2,0.8-0.1,1.1,0,1.1c0.8-0.2,1.6-0.6,2.2-1.1l0.5,0.7
	c-1.5,1.6-3.4,2.8-5.6,3.2H13.7z"/>
</svg>
