<?xml version="1.0" encoding="utf-8"?>
<!-- Generator: Adobe Illustrator 23.0.0, SVG Export Plug-In . SVG Version: 6.00 Build 0)  -->
<svg version="1.1" id="图层_1" xmlns="http://www.w3.org/2000/svg" xmlns:xlink="http://www.w3.org/1999/xlink" x="0px" y="0px"
	 viewBox="0 0 32 32" style="enable-background:new 0 0 32 32;" xml:space="preserve">
<style type="text/css">
	.st0{fill:#FAFAFA;}
</style>
<g>
	<path class="st0" d="M9.6,11.7v2.2c0,3,2.6,5.4,5.8,5.4s5.8-2.4,5.8-5.4v-2.2L9.6,11.7z M9.6,9.5h11.6c0-3-2.6-5.4-5.8-5.4
		S9.6,6.5,9.6,9.5z M11,20.2c-3.2,1.4-5.6,4.3-5.9,7.6h23.1V30H2.7v-1.1c0-4.3,2.6-8.2,6.5-10.3c-1.2-1.3-1.9-2.9-1.9-4.7V9.5
		c0-4.2,3.6-7.5,8.1-7.5s8.1,3.3,8.1,7.5v4.3c0,4.2-3.6,7.5-8.1,7.5C13.8,21.4,12.3,21,11,20.2L11,20.2z"/>
	<path class="st0" d="M24.7,21.4v-2.2H27v2.2h2.3v2.2H27v2.2h-2.3v-2.2h-2.3v-2.2H24.7z"/>
</g>
</svg>
