<?xml version="1.0" encoding="utf-8"?>
<!-- Generator: Adobe Illustrator 23.0.0, SVG Export Plug-In . SVG Version: 6.00 Build 0)  -->
<svg version="1.1" id="图层_1" xmlns="http://www.w3.org/2000/svg" xmlns:xlink="http://www.w3.org/1999/xlink" x="0px" y="0px"
	 viewBox="0 0 32 32" style="enable-background:new 0 0 32 32;" xml:space="preserve">
<style type="text/css">
	.st0{fill:#FAFAFA;}
</style>
<g>
	<path class="st0" d="M24.9,16.1c1.9-1.4,3.1-3.7,3.1-6.3C28,5.5,24.6,2,20.3,2c-2.6,0-4.8,1.3-6.2,3.3c-0.5,0.7-0.9,1.4-1.1,2.2v0
		c0.8,0.2,1.6,0.6,2.2,1.2c0.2-0.9,0.6-1.6,1.1-2.3c1.1-1.4,2.9-2.2,4.9-1.9c2.2,0.3,3.9,2.1,4.3,4.3c0.6,3.4-2,6.3-5.2,6.3
		c-0.5,0-0.9-0.1-1.3-0.2v0c-0.8-0.2-1.6-0.6-2.2-1.2c-0.2,0.9-0.6,1.6-1.1,2.3c0,0,0,0,0,0c0,0,0,0,0,0C15,17,14,17.6,12.9,17.9
		c-0.1,0.1-0.1,0.1-0.2,0.2c-0.8,0.7-1.5,1.5-2.1,2.3c0,0.1-0.1,0.1-0.1,0.2c0.4-0.1,0.8-0.1,1.2-0.1c0.6,0,1.2,0.1,1.8,0.2
		c0.2-0.2,0.4-0.4,0.6-0.6c0.5-0.5,1.1-0.9,1.7-1.3c0.4-0.2,0.8-0.4,1.3-0.6c1-0.4,2.1-0.6,3.2-0.6c4.8,0,8.7,3.7,9.3,8.4
		c0.1,0.6,0.6,1,1.2,1c0.7,0,1.3-0.7,1.2-1.4C31.5,21.4,28.7,17.8,24.9,16.1L24.9,16.1z"/>
	<path class="st0" d="M16.2,19c0.3-0.2,0.6-0.5,0.8-0.7c0.3-0.3,0.6-0.6,0.8-1c0.4-0.6,0.8-1.3,1-2c0-0.1,0.1-0.2,0.1-0.3v0
		c0.2-0.7,0.3-1.5,0.3-2.3c0-2.6-1.2-4.9-3.1-6.3c-0.6-0.5-1.4-0.9-2.2-1.2c-0.6-0.2-1.2-0.3-1.9-0.4c-3.8-0.3-7.3,2.5-8.1,6.3
		c-0.6,3.2,0.7,6.1,3,7.8c-3.8,1.6-6.6,5.3-7.1,9.6C-0.1,29.3,0.5,30,1.2,30c0.6,0,1.1-0.4,1.2-1c0.5-4.3,3.8-7.8,8.1-8.4
		c0.4-0.1,0.8-0.1,1.2-0.1c0.6,0,1.2,0.1,1.8,0.2c3.9,0.8,7,4.1,7.4,8.2c0.1,0.6,0.6,1,1.2,1h0c0.7,0,1.3-0.7,1.2-1.4
		C22.8,24.3,20.1,20.6,16.2,19L16.2,19z M6.7,10.8C7.5,8.6,9.6,7.2,12,7.3c0.3,0,0.7,0.1,1,0.2v0c0.8,0.2,1.6,0.6,2.2,1.2
		c1.1,1,1.8,2.4,1.8,4c0,0.4,0,0.8-0.1,1.1c-0.2,0.9-0.6,1.6-1.1,2.3c0,0,0,0,0,0.1C15,17,14,17.6,12.9,17.9
		c-0.4,0.1-0.8,0.1-1.2,0.1C8.2,18.1,5.5,14.5,6.7,10.8z"/>
</g>
</svg>
