<?xml version="1.0" encoding="utf-8"?>
<!-- Generator: Adobe Illustrator 23.0.0, SVG Export Plug-In . SVG Version: 6.00 Build 0)  -->
<svg version="1.1" id="close" xmlns="http://www.w3.org/2000/svg" xmlns:xlink="http://www.w3.org/1999/xlink" x="0px" y="0px"
	 viewBox="0 0 34 34" style="enable-background:new 0 0 34 34;" xml:space="preserve">
<style type="text/css">
	.st0{fill:#BDC0C6;}
	.st1{fill:#202020;}
</style>
<g>
	<g>
		<g>
			<path class="st0" d="M30.5,1c1.4,0,2.5,1,2.5,1.6v28.1c0,0,0,0.1,0,0.1c0,0,0,0.6-0.5,1.2c-0.7,0.7-2,1.1-3.8,1.1
				c-0.1,0-0.3,0-0.5,0c-4.1,0-8.7,0-13.2,0c-3.6,0-7.2,0-10.5,0C2.2,33,1,32.2,1,30.7L1.2,3.5c0,0,0,0,0-0.1c0,0,0-1,0.6-1.7
				C2.3,1.2,3,1,4,1H30.5 M30.5,0H4C0,0,0.2,3.5,0.2,3.5L0,30.7c0,2,1.5,3.3,4.6,3.3c3.3,0,6.9,0,10.5,0c4.5,0,9.1,0,13.2,0
				c0.2,0,0.3,0,0.5,0c5.6,0,5.2-3.3,5.2-3.3V2.6C34,1.3,32.3,0,30.5,0L30.5,0z"/>
		</g>
	</g>
	<g>
		<path class="st1" d="M21,17l-0.5-0.5l-6.9-6.6c0,0,0,0,0,0c-0.2-0.2-0.2-0.6,0-0.8c0.2-0.2,0.6-0.2,0.9,0l7.7,7.4
			c0.1,0.1,0.2,0.3,0.2,0.5c0,0.2,0,0.4-0.2,0.5l-7.7,7.4c-0.2,0.2-0.6,0.2-0.8,0c-0.2-0.2-0.2-0.6,0-0.8l6.7-6.4L21,17L21,17z"/>
	</g>
</g>
</svg>
