<?xml version="1.0" encoding="utf-8"?>
<!-- Generator: Adobe Illustrator 23.0.0, SVG Export Plug-In . SVG Version: 6.00 Build 0)  -->
<svg version="1.1" id="close" xmlns="http://www.w3.org/2000/svg" xmlns:xlink="http://www.w3.org/1999/xlink" x="0px" y="0px"
	 viewBox="0 0 34 34" style="enable-background:new 0 0 34 34;" xml:space="preserve">
<style type="text/css">
	.st0{fill:#0064B6;}
	.st1{fill:#202020;}
	.st2{font-family:'Roboto-Regular';}
	.st3{font-size:11.1203px;}
</style>
<g>
	<g>
		<path class="st0" d="M30,1c1,0,1.8,0.2,2.2,0.7c0.7,0.7,0.6,1.7,0.6,1.7c0,0,0,0,0,0.1L33,30.7c0,1.5-1.2,2.3-3.6,2.3
			c-3.3,0-6.9,0-10.5,0c-4.5,0-9.1,0-13.2,0c-0.1,0-0.3,0-0.4,0c-1.8,0-3.1-0.4-3.8-1.1C1,31.4,1,30.8,1,30.8c0,0,0-0.1,0-0.1V2.6
			C1,1.9,2.1,1,3.5,1H30 M30,0H3.5C1.7,0,0,1.3,0,2.6v28.1c0,0-0.3,3.3,5.2,3.3c0.1,0,0.3,0,0.5,0c4.1,0,8.7,0,13.2,0
			c3.6,0,7.2,0,10.5,0c3.1,0,4.6-1.3,4.6-3.3L33.8,3.5C33.8,3.5,34,0,30,0L30,0z"/>
	</g>
	<text transform="matrix(0.9045 0 0 1 6.2632 20.2497)" class="st1 st2 st3">Goto</text>
</g>
</svg>
