<?xml version="1.0" encoding="utf-8"?>
<!-- Generator: Adobe Illustrator 23.0.0, SVG Export Plug-In . SVG Version: 6.00 Build 0)  -->
<svg version="1.1" id="图层_1" xmlns="http://www.w3.org/2000/svg" xmlns:xlink="http://www.w3.org/1999/xlink" x="0px" y="0px"
	 viewBox="0 0 46 32" style="enable-background:new 0 0 46 32;" xml:space="preserve">
<style type="text/css">
	.st0{fill:#E81123;}
	.st1{fill:#FFFFFF;}
</style>
<g>
	<g>
		<g>
			<g>
				<g>
					<g id="图层_1_x5F_复制_39_">
						<path class="st0" d="M46,31.9L46,31.9L0,32v-0.1V0h46V31.9z"/>
					</g>
				</g>
			</g>
		</g>
	</g>
	<path class="st1" d="M23.8,16l4.1-4.1c0.2-0.2,0.2-0.5,0-0.8l0,0c-0.2-0.2-0.5-0.2-0.7,0L23,15.2l-4.1-4.1c-0.2-0.2-0.5-0.2-0.7,0
		l0,0c-0.2,0.2-0.2,0.5,0,0.8l4.1,4.1l-4.1,4.1c-0.2,0.2-0.2,0.5,0,0.8l0,0c0.2,0.2,0.5,0.2,0.7,0l4.1-4.1l4.1,4.1
		c0.2,0.2,0.5,0.2,0.7,0l0,0c0.2-0.2,0.2-0.5,0-0.8L23.8,16z"/>
</g>
</svg>
